<svg width="148" height="96" viewBox="0 0 148 96" fill="none" xmlns="http://www.w3.org/2000/svg">
<path d="M62.8568 15.5628L3.16418 39.6706L3.16418 50.4944L25.3639 80.9981L47.5637 92.3139L86.5365 74.1102L141.789 50.4944L144.749 44.0985L130.936 8.67493L115.15 2.771L94.4298 8.67493L62.8568 15.5628Z" fill="#EEFF04" stroke="white" stroke-width="5"/>
<g clip-path="url(#clip0_57_97)">
<path d="M49.912 76.3791C49.8784 76.2298 49.828 76.0058 49.8523 75.765C49.8187 75.6157 49.7272 75.5578 49.6358 75.5C49.4864 75.5336 49.4286 75.625 49.4454 75.6997C49.4211 75.9405 49.3222 76.1981 49.3726 76.4221C49.3073 76.829 49.0422 77.0456 48.6017 76.8309C48.2526 76.6741 47.9035 76.5173 47.7281 76.0861C47.603 75.879 47.5358 75.5803 47.4107 75.3731C47.4275 75.4478 47.3696 75.5392 47.3864 75.6139C47.3454 75.78 47.4705 75.9872 47.2465 76.0376C47.1718 76.0544 47.0467 75.8472 46.9385 75.7147C46.8302 75.5822 46.7723 75.6737 46.623 75.7073C46.3169 76.0899 46.3169 76.0899 46.0257 75.8417C45.5683 75.5524 45.335 75.2126 45.1595 74.7814C44.9336 74.1263 44.7992 73.5289 44.6648 72.9316C44.5136 72.2596 44.4202 71.4962 44.3437 70.8074C44.2596 70.4341 44.2503 70.0439 44.2409 69.6538C44.3305 69.0061 44.2708 68.392 44.1195 67.72C43.9851 67.1226 43.9254 66.5085 43.8488 65.8197C43.8563 65.5043 43.7891 65.2056 43.7219 64.9069C43.6378 64.5336 43.7032 64.1267 43.6938 63.7366C43.7013 63.4211 43.7087 63.1056 43.5669 62.8238C43.4082 62.4673 43.242 62.4262 42.8687 62.5102C42.5122 62.6689 42.1557 62.8276 41.7991 62.9862C41.0861 63.3036 40.4477 63.6041 39.884 63.8879C39.66 63.9383 39.5275 64.0466 39.3203 64.1716C39.1299 64.3714 38.9395 64.5711 38.932 64.8866C38.8499 65.2188 38.8593 65.609 38.8518 65.9244C38.8631 67.0202 38.9322 68.0244 38.9434 69.1201C38.9882 70.3652 39.0163 71.5356 39.1358 72.7638C39.1806 74.0089 39.2833 75.1624 39.386 76.316C39.4122 76.7808 39.4383 77.2456 39.4645 77.7104C39.4813 77.7851 39.4066 77.8019 39.332 77.8187C39.3152 77.744 39.2405 77.7608 39.2237 77.6862C39.0893 77.0888 39.1042 76.4579 39.0276 75.7691C38.7961 72.9972 38.7306 70.2663 38.5737 67.4775C38.555 66.6972 38.4617 65.9338 38.5177 65.1367C38.5009 65.0621 38.4673 64.9127 38.5251 64.8213C38.5083 64.7466 38.4168 64.6887 38.4168 64.6887C38.3422 64.7055 38.2675 64.7223 38.2843 64.797C38.2265 64.8885 38.2601 65.0378 38.219 65.2039C38.2115 65.5194 38.2041 65.8349 38.2134 66.225C38.3106 68.3996 38.3331 70.5911 38.5217 72.8236C38.6244 73.9772 38.7271 75.1307 38.813 76.2097C38.9063 76.9731 38.9829 77.6619 38.8354 78.4011C38.8112 78.6419 38.7869 78.8827 38.5965 79.0824C38.5219 79.0992 38.4472 79.116 38.3725 79.1328C38.2979 79.1496 38.2064 79.0918 38.1728 78.9424C38.1392 78.7931 38.0888 78.5691 38.0384 78.3451C38.0048 78.1958 37.988 78.1211 37.8387 78.1547C37.6893 78.1883 37.6315 78.2798 37.6483 78.3545C37.624 78.5953 37.5251 78.8529 37.5008 79.0937C37.4187 79.4259 37.1368 79.5678 36.8046 79.4857C36.5638 79.4614 36.364 79.271 36.1643 79.0806C36.056 78.9481 35.9478 78.8156 35.8227 78.6084C35.7312 78.5505 35.6566 78.5673 35.5072 78.6009C35.524 78.6756 35.3747 78.7092 35.3747 78.7092C35.0835 78.461 34.8427 78.4367 34.7027 78.8604C34.7195 78.9351 34.5534 78.894 34.4787 78.9108C33.7806 78.5973 33.2728 78.084 33.1627 77.2458C33.1291 77.0965 33.0955 76.9472 33.0619 76.7978C33.0842 75.8515 32.7911 74.8976 32.722 73.8934C32.6791 73.3539 32.5615 72.8312 32.427 72.2339C32.3598 71.9353 32.2012 71.5787 32.2086 71.2633C32.3224 70.3747 32.0536 69.1801 32.0424 68.0844C31.9994 67.5449 31.9733 67.0801 31.781 66.5743C31.6391 66.2924 31.5551 65.9191 31.3554 65.7287C31.0306 65.3311 31.0044 64.8663 30.7543 64.4519C30.6628 64.3941 30.7785 64.2111 30.7617 64.1365C30.7692 63.821 30.6777 63.7631 30.3212 63.9218C30.1719 63.9554 30.114 64.0469 29.9647 64.0805C29.89 64.0973 29.7407 64.1309 29.6492 64.073C29.358 63.8248 29.0836 63.6512 28.8502 63.3115C28.7084 63.0296 28.658 62.8056 28.9062 62.5144C29.1545 62.2232 29.4027 61.932 29.6678 61.7155C30.0654 61.3907 30.3883 61.0827 30.7859 60.7578C31.1835 60.433 31.4149 60.0672 31.372 59.5277C31.3514 58.0419 31.3308 56.556 31.327 55.1448C31.3064 53.659 31.228 52.2646 31.5565 50.9355C31.7039 50.1963 31.7767 49.4739 31.9241 48.7347C32.0062 48.4025 32.0715 47.9956 32.2451 47.7211C32.4598 47.2806 32.6576 46.7654 32.7061 46.2838C32.7957 45.6361 32.96 44.9716 33.3818 44.4059C33.4807 44.1483 33.5797 43.8907 33.6786 43.6331C33.8186 43.2094 34.0258 43.0843 34.4327 43.1497C34.7481 43.1571 34.9721 43.1067 35.2876 43.1142C35.5284 43.1384 35.6367 43.271 35.6124 43.5117C35.6292 43.5864 35.5714 43.6779 35.5135 43.7693C35.2652 44.0606 35.3324 44.3592 35.4743 44.6411C35.549 44.6243 35.5826 44.7736 35.5826 44.7736C35.6573 44.7568 35.7319 44.74 35.773 44.5739C35.7562 44.4992 35.7972 44.3331 35.8383 44.1669C35.9372 43.9093 35.9204 43.8347 36.3274 43.9C36.402 43.8832 36.4935 43.941 36.6428 43.9074C37.4399 43.9634 37.8057 44.1949 38.0316 44.8501C38.1324 45.298 38.2333 45.746 38.2352 46.4516C38.3919 46.1026 38.433 45.9364 38.5487 45.7535C38.5898 45.5874 38.8306 45.6116 38.9389 45.7441C39.0807 46.026 39.1311 46.25 39.049 46.5823C38.8605 47.4876 38.9707 48.3257 38.8736 49.2889C38.8326 49.455 38.9577 49.6622 38.9334 49.903C38.967 50.0524 38.9091 50.1438 38.9427 50.2932C38.7113 50.659 38.7206 51.0492 38.8046 51.4225C38.8215 51.4971 38.7804 51.6633 38.814 51.8126C38.7151 52.0702 38.6908 52.311 38.6087 52.6433C38.3717 54.0302 38.4501 55.4246 38.3046 56.8694C38.3214 56.944 38.3382 57.0187 38.2971 57.1848C38.3139 57.2595 38.3886 57.2427 38.4054 57.3174C38.4801 57.3006 38.5547 57.2838 38.5379 57.2091C38.6368 56.9515 38.6275 56.5614 38.635 56.2459C38.7152 55.208 38.7039 54.1123 38.7674 52.9998C38.8327 52.5929 38.7487 52.2195 38.6647 51.8462C38.7225 51.7547 38.6889 51.6054 38.73 51.4393C38.8868 51.0902 38.9689 50.7579 38.8681 50.31C38.8345 50.1606 38.8923 50.0692 38.8587 49.9198C38.9166 49.8284 38.8998 49.7537 39.0491 49.7201C39.0323 49.6454 39.107 49.6286 39.1816 49.6118C39.1816 49.6118 39.2563 49.595 39.2731 49.6697C39.2899 49.7443 39.3235 49.8937 39.2657 49.9851C39.2601 51.0062 39.2545 52.0273 39.249 53.0483C39.2583 53.4384 39.2098 53.92 39.1445 54.327C39.0717 55.0494 39.0157 55.8464 39.0923 56.5352C39.1016 56.9253 39.3014 57.1157 39.6747 57.0317C40.6864 56.6472 41.6235 56.2794 42.6184 55.8202C43.0327 55.57 43.2642 55.2041 43.238 54.7394C43.2119 54.2746 43.2604 53.793 43.3089 53.3114C43.3164 52.9959 43.3238 52.6804 43.2566 52.3818C43.1969 51.7677 43.1539 51.2282 43.2435 50.5805C43.292 50.0989 43.2659 49.6341 43.3144 49.1525C43.3386 48.9117 43.3629 48.6709 43.3872 48.4301C43.6335 47.4333 43.7306 46.4701 43.9022 45.4901C44.0329 44.6762 44.1635 43.8624 44.6096 43.056C44.7832 42.7816 44.8485 42.3746 45.0221 42.1002C45.2778 41.4936 45.7837 41.3013 46.3904 41.557C46.6648 41.7306 46.8645 41.921 46.7077 42.27C46.7245 42.3447 46.7413 42.4194 46.7581 42.494C46.7749 42.5687 46.9242 42.5351 46.9074 42.4604C47.2136 42.0778 47.5794 42.3092 47.9696 42.2999C48.1936 42.2495 48.4848 42.4977 48.6098 42.7049C48.8432 43.0446 49.0765 43.3844 49.1605 43.7577C49.2109 43.9817 49.2613 44.2057 49.3117 44.4297C49.4611 44.3961 49.4107 44.1721 49.5432 44.0638C49.5843 43.8977 49.8251 43.9219 49.9333 44.0544C50.1256 44.5603 50.3758 44.9747 50.4019 45.4395C50.6371 46.4848 50.723 47.5637 50.7175 48.5848C50.7287 49.6805 50.74 50.7762 50.7344 51.7973C50.7437 52.1874 50.6206 52.6858 50.6299 53.0759C50.5739 53.873 50.518 54.67 50.462 55.4671C50.6785 55.7322 50.7457 56.0308 50.7961 56.2548C50.7887 56.5703 50.8559 56.8689 50.8316 57.1097C50.8484 57.1844 50.8074 57.3505 50.8242 57.4252C51.2069 57.7313 50.9754 58.0972 50.8018 58.3716C50.645 58.7207 50.5797 59.1276 50.5144 59.5345C50.5256 60.6302 50.479 61.8174 50.4902 62.9131C50.4847 63.9342 50.537 64.8638 50.4399 65.827C50.4512 66.9227 50.5539 68.0763 50.5651 69.172C50.6174 70.1016 50.5951 71.048 50.5727 71.9944C50.4551 71.4717 50.3543 71.0237 50.4028 70.5421C50.2776 67.1971 50.2439 63.9099 50.2848 60.606C50.3091 60.3652 50.2419 60.0665 50.2661 59.8257C50.2325 59.6764 50.2736 59.5103 50.1653 59.3777C50.0739 59.3199 49.9581 59.5028 49.9507 59.8183C49.9115 60.69 49.8723 61.5617 49.9078 62.4166C49.9733 65.1475 50.0387 67.8784 50.1041 70.6093C50.149 71.8544 50.3263 72.9912 50.4458 74.2194C50.4552 74.6095 50.556 75.0575 50.5653 75.4477C50.5579 75.7631 50.4926 76.17 50.3022 76.3698C50.2443 76.4613 50.1696 76.4781 50.1118 76.5695C49.8878 76.6199 49.8542 76.4706 49.912 76.3791ZM35.1674 75.6964C35.2421 75.6796 35.2253 75.605 35.1674 75.6964ZM37.5081 72.5025C37.4913 72.4279 37.4745 72.3532 37.4577 72.2785C37.4745 72.3532 37.4166 72.4447 37.4334 72.5193C37.3587 72.5361 37.4502 72.594 37.467 72.6687C37.4502 72.594 37.5249 72.5772 37.5081 72.5025ZM37.4445 70.4772C37.5434 70.2196 37.5005 69.6802 37.3922 69.5476L37.3176 69.5645C37.2186 69.8221 37.1944 70.0628 37.2448 70.2868C37.2616 70.3615 37.2784 70.4362 37.2952 70.5108C37.312 70.5855 37.312 70.5855 37.3867 70.5687C37.3699 70.494 37.4613 70.5519 37.4445 70.4772ZM33.9609 56.0426C34.1904 54.9711 34.1045 53.8922 34.1101 52.8712C34.0933 52.7965 34.0765 52.7218 34.0597 52.6472C33.6808 53.7522 33.7835 54.9058 33.9609 56.0426ZM37.1588 66.0701C37.1998 65.904 37.0748 65.6968 37.0169 65.7882C36.8844 65.8965 36.9926 66.029 37.0094 66.1037C37.0262 66.1784 37.043 66.253 37.0599 66.3277C37.1177 66.2362 37.1756 66.1448 37.1588 66.0701ZM34.2314 51.6672C34.2724 51.501 34.3135 51.3349 34.2631 51.1109C34.222 51.277 34.0895 51.3853 34.1399 51.6093L34.1567 51.684C34.1567 51.684 34.2314 51.6672 34.2314 51.6672ZM34.3265 49.9984C34.3097 49.9237 34.3844 49.9069 34.459 49.8901C34.4422 49.8154 34.4422 49.8154 34.4422 49.8154C34.3676 49.8323 34.3676 49.8323 34.3844 49.9069C34.3097 49.9237 34.3265 49.9984 34.3265 49.9984C34.3601 50.1477 34.3023 50.2392 34.3359 50.3885C34.3023 50.2392 34.2855 50.1645 34.3265 49.9984ZM34.5057 48.7029C34.5467 48.5368 34.5878 48.3707 34.6121 48.1299C34.6457 48.2792 34.5299 48.4621 34.5057 48.7029C34.4646 48.8691 34.4814 48.9437 34.4404 49.1099C34.4814 48.9437 34.5393 48.8523 34.5057 48.7029ZM35.1701 45.7293C35.1122 45.8208 35.129 45.8955 35.0712 45.9869C35.129 45.8955 35.1869 45.804 35.1701 45.7293ZM39.1685 47.8105C39.2021 47.9598 39.2357 48.1092 39.1779 48.2006C38.9949 48.0849 39.1275 47.9766 39.1685 47.8105ZM39.1013 47.5118C39.0845 47.4372 39.0845 47.4372 39.1592 47.4204C39.176 47.495 39.176 47.495 39.1928 47.5697C39.2096 47.6444 39.1517 47.7358 39.1685 47.8105L39.1853 47.8852C39.2264 47.719 39.2096 47.6444 39.1013 47.5118ZM47.0411 73.7305C47.0243 73.6558 47.0075 73.5811 46.9906 73.5065L46.916 73.5233C46.7835 73.6315 46.8917 73.7641 46.9085 73.8387C46.9253 73.9134 46.9253 73.9134 46.9253 73.9134C46.9832 73.8219 47.0579 73.8051 47.0411 73.7305ZM49.2305 69.8646C49.2174 68.0633 48.9466 66.163 49.0828 64.3281C49.1873 63.0494 49.0678 61.8212 49.023 60.5762C49.0062 60.5015 49.064 60.41 49.0472 60.3354C49.0304 60.2607 49.0136 60.186 48.939 60.2028C48.8643 60.2196 48.7896 60.2364 48.8064 60.3111C48.6739 60.4194 48.6328 60.5855 48.6497 60.6602C48.6851 61.5151 48.646 62.3868 48.6068 63.2585C48.7039 65.4332 48.8011 67.6078 48.8236 69.7992C48.8329 70.1894 48.8591 70.6542 49.0924 70.9939C49.3239 70.628 49.2398 70.2547 49.2305 69.8646ZM50.6156 72.5338C50.8919 73.413 50.8528 74.2847 50.9797 75.1975C50.6288 74.3351 50.5765 73.4055 50.6156 72.5338ZM50.6474 71.9776C50.681 72.1269 50.7314 72.3509 50.6903 72.517C50.6399 72.293 50.6063 72.1437 50.6474 71.9776ZM45.9819 50.1996C45.9072 50.2164 45.9987 50.2742 45.9987 50.2742L45.9819 50.1996ZM46.0676 48.1407C46.0266 48.3068 45.7783 48.598 46.0695 48.8463C46.1685 48.5887 46.2674 48.3311 46.0676 48.1407ZM50.3481 56.3556C50.4265 54.6122 50.5627 52.7773 50.641 51.0338C50.6074 50.8845 50.6485 50.7183 50.557 50.6605C50.5402 50.5858 50.4655 50.6026 50.4487 50.528C50.4487 50.528 50.3741 50.5448 50.3909 50.6194C50.3498 50.7856 50.3088 50.9517 50.3592 51.1757C50.3107 51.6573 50.3032 51.9727 50.2547 52.4543C50.1408 53.3429 50.0438 54.3061 50.0793 55.161C50.1055 55.6258 50.1316 56.0906 50.1578 56.5554C50.1746 56.63 50.2492 56.6132 50.266 56.6879C50.3071 56.5218 50.2903 56.4471 50.3481 56.3556ZM46.9093 43.166C46.8925 43.0914 46.9672 43.0746 47.0251 42.9831C47.0083 42.9084 47.0661 42.817 47.0493 42.7423C47.0661 42.817 46.9915 42.8338 46.9336 42.9252C46.9504 42.9999 46.8925 43.0914 46.9093 43.166C46.8515 43.2575 46.8683 43.3322 46.8104 43.4236C46.8683 43.3322 46.9261 43.2407 46.9093 43.166ZM50.445 49.1168C50.5439 48.8592 50.6596 48.6762 50.5924 48.3776L50.5177 48.3944C50.4431 48.4112 50.4431 48.4112 50.4431 48.4112C50.3273 48.5941 50.3946 48.8928 50.445 49.1168ZM50.6707 46.6341C50.5961 46.6509 50.5625 46.5016 50.5793 46.5763C50.4299 46.6099 50.3889 46.776 50.4972 46.9085C50.514 46.9832 50.6054 47.0411 50.5886 46.9664C50.6465 46.8749 50.7043 46.7835 50.6707 46.6341Z" fill="#222222"/>
<path d="M59.9712 69.4871C59.1741 69.4311 58.5842 69.2501 58.0933 68.8114C57.6192 68.4474 57.145 68.0835 56.6298 67.8856C56.1146 67.6878 55.6983 67.2323 55.3735 66.8347C55.157 66.5697 55.0898 66.271 54.9311 65.9145C54.8041 65.0017 54.694 64.1636 54.7332 63.2919C54.8059 62.5695 54.804 61.8639 54.8021 61.1583C54.7237 59.7639 54.9607 58.377 55.0484 57.0237C55.1435 55.3549 55.2387 53.6861 55.1677 51.9763C55.1583 51.5861 55.1826 51.3453 55.2479 50.9384C55.3711 50.44 55.3281 49.9005 55.4345 49.3275C55.4569 48.3811 55.5539 47.4179 55.8339 46.5704C55.9403 45.9974 55.972 45.4411 56.0037 44.8848C56.1343 44.071 56.1735 43.1993 56.2873 42.3107C56.2948 41.9953 56.3937 41.7377 56.3265 41.439C56.2593 41.1403 56.2668 40.8249 56.4403 40.5505C56.5393 40.2929 56.3563 40.1772 56.207 40.2108C56.0577 40.2444 55.983 40.2612 55.8337 40.2948C55.4604 40.3788 55.1859 40.2052 55.0273 39.8487C54.8854 39.5668 54.876 39.1767 55.199 38.8687C55.3315 38.7604 55.464 38.6521 55.6134 38.6185C55.8952 38.4767 56.2349 38.2433 56.5915 38.0846C56.7408 38.051 56.948 37.926 57.0637 37.743C57.1384 37.7262 57.1216 37.6516 57.1048 37.5769C57.088 37.5022 57.0133 37.519 56.9386 37.5358C56.6232 37.5284 56.416 37.6534 56.2256 37.8532C55.7944 38.0287 55.4547 38.262 55.0982 38.4207C55.0235 38.4375 54.9488 38.4543 54.932 38.3796C54.9152 38.305 54.9731 38.2135 54.9731 38.2135C55.1056 38.1052 55.1803 38.0884 55.2549 38.0716C55.6693 37.8215 56.1752 37.6292 56.5896 37.379C56.7389 37.3454 56.9461 37.2204 57.0786 37.1121C57.2111 37.0038 57.269 36.9124 57.2522 36.8377C57.2354 36.763 57.1439 36.7052 56.9199 36.7556C56.4888 36.9311 56.0576 37.1065 55.5685 37.3735C55.3613 37.4986 55.0795 37.6404 54.7808 37.7076C54.4989 37.8495 54.2413 37.7506 54.1573 37.3773C53.9818 36.9461 54.2376 36.3394 54.7098 35.9978C54.917 35.8727 55.1242 35.7476 55.4229 35.6804C55.9119 35.4135 56.4924 35.2044 56.9815 34.9375C57.1308 34.9039 57.1887 34.8124 57.338 34.7788C58.723 34.3102 60.1659 33.7502 61.5174 33.1323C61.9485 32.9568 62.3219 32.8728 62.6616 32.6394C63.8805 32.1298 65.1666 31.9188 66.4527 31.7078C67.2908 31.5977 67.8396 31.9449 68.3474 32.4582C68.5303 32.5739 68.4314 32.8315 68.2074 32.8819C67.9834 32.9323 67.7016 33.0742 67.3861 33.0667C65.9338 33.2366 64.532 33.6305 63.1638 34.1738C62.0774 34.5752 60.991 34.9765 59.9961 35.4357C59.5649 35.6112 59.3745 35.811 59.5575 35.9267C59.7572 36.1171 59.9476 35.9173 60.1716 35.8669C61.7638 35.2733 63.2646 34.6218 64.8568 34.0281C65.736 33.7518 66.6152 33.4755 67.5112 33.2739C67.8098 33.2067 68.1253 33.2142 68.4407 33.2216C68.5154 33.2048 68.6069 33.2627 68.549 33.3541C68.508 33.5203 68.5416 33.6696 68.6909 33.636C69.1725 33.6845 69.3144 33.9664 69.5477 34.3061C69.7979 34.7205 69.6989 34.9781 69.2509 35.0789C68.8029 35.1797 68.3718 35.3552 67.9816 35.3645C66.3969 35.6427 64.8793 36.2196 63.4364 36.7796C62.8559 36.9887 62.2922 37.2724 61.7284 37.5562C61.5791 37.5898 61.4466 37.6981 61.3141 37.8063C61.2562 37.8978 61.1815 37.9146 61.2151 38.0639C61.2487 38.2133 61.3981 38.1797 61.4727 38.1629C61.6799 38.0378 61.9786 37.9706 62.2604 37.8287C63.3468 37.4273 64.4911 36.9345 65.6521 36.5163C66.4398 36.1822 67.1697 35.9395 67.991 35.7547C68.5136 35.6371 69.0363 35.5194 69.5925 35.5512C69.6672 35.5343 69.7587 35.5922 69.8501 35.6501C69.9416 35.7079 69.8838 35.7994 69.8091 35.8162C69.503 36.1989 69.1054 36.5237 68.5827 36.6413C67.1062 37.052 65.738 37.5953 64.353 38.0638C64.3194 37.9145 64.5434 37.8641 64.618 37.8473C64.9745 37.6886 65.3311 37.5299 65.7044 37.4459C66.0609 37.2873 66.5089 37.1864 66.8654 37.0278C66.8486 36.9531 66.9233 36.9363 66.9065 36.8616C66.8897 36.787 66.815 36.8038 66.815 36.8038C66.7404 36.8206 66.7404 36.8206 66.6657 36.8374C65.206 37.3227 63.821 37.7913 62.4863 38.4839C62.337 38.5175 62.1298 38.6426 61.9973 38.7508C61.9226 38.7676 62.0141 38.8255 61.9562 38.917C62.0309 38.9002 62.0477 38.9748 62.1224 38.958C62.3464 38.9076 62.5535 38.7826 62.7775 38.7321C63.0015 38.6817 63.2087 38.5567 63.4327 38.5063C63.1845 38.7975 62.9026 38.9393 62.5461 39.098C61.8909 39.3239 61.6016 39.7812 61.6781 40.47C61.7398 41.7897 61.8182 43.1841 61.9713 44.5617C61.9882 44.6364 62.005 44.711 62.0218 44.7857C62.0722 45.0097 62.3466 45.1833 62.6284 45.0414C63.2668 44.7409 63.9388 44.5896 64.6686 44.3469C65.042 44.2629 65.4153 44.1789 65.7886 44.0949C66.3859 43.9605 66.9011 44.1583 67.3995 44.2815C67.6403 44.3058 67.8233 44.4215 67.9483 44.6287C68.2732 45.0263 68.7305 45.3156 69.2457 45.5134C69.3372 45.5713 69.4286 45.6292 69.5201 45.687C69.8113 45.9353 70.0857 46.1089 70.1119 46.5737C70.1455 46.723 70.1623 46.7977 70.1959 46.947C70.2295 47.0963 70.3545 47.3035 70.5039 47.2699C70.67 47.311 70.8361 47.352 70.8697 47.5014C70.9033 47.6507 70.7708 47.759 70.713 47.8504C70.5394 48.1248 70.3322 48.2499 70.0335 48.3171C69.8095 48.3675 69.5855 48.4179 69.3615 48.4683C68.6895 48.6196 67.9597 48.8622 67.3381 49.2375C66.8659 49.5791 66.3768 49.846 65.7963 50.0551C65.5144 50.197 65.2326 50.3389 64.9675 50.5554C64.3627 51.0053 63.7244 51.3058 63.0692 51.5317C62.3972 51.6829 62.0911 52.0656 62.0762 52.6965C62.093 52.7712 62.0351 52.8627 61.994 53.0288C61.9194 53.0456 61.8858 52.8963 61.8447 53.0624C61.9194 53.0456 61.9194 53.0456 61.994 53.0288C62.0613 53.3275 62.1285 53.6261 61.9549 53.9005C61.9381 53.8259 61.9213 53.7512 61.8298 53.6933C61.7383 53.6355 61.6805 53.7269 61.6226 53.8184C61.5815 53.9845 61.5573 54.2253 61.533 54.4661C61.5685 55.3211 61.6208 56.2506 61.6563 57.1056C61.6246 57.6618 61.6097 58.2928 61.578 58.849C61.4884 59.4967 61.7143 60.1519 61.774 60.7661C61.8077 60.9154 61.8823 60.8986 62.0148 60.7903C62.0727 60.6988 62.1474 60.682 62.2388 60.7399C62.53 60.9882 62.7372 60.8631 63.0023 60.6465C63.5492 60.2881 64.0383 60.0212 64.4937 59.6049C65.1563 59.0636 65.8694 58.7462 66.6571 58.412C67.163 58.2198 67.6109 58.1189 68.1504 58.076C68.6152 58.0498 69.0221 58.1152 69.4048 58.4213C69.6792 58.5949 69.9368 58.6938 70.2523 58.7013C71.0325 58.6826 71.656 59.0129 72.1059 59.6177C72.3224 59.8828 72.5968 60.0564 72.7966 60.2467C73.0542 60.3457 73.1382 60.719 72.9478 60.9187C72.8489 61.1763 72.567 61.3182 72.2683 61.3854C71.3313 61.7532 70.5193 62.3281 69.7242 62.9778C69.4591 63.1943 69.1194 63.4276 68.8543 63.6442C68.7218 63.7524 68.5146 63.8775 68.3242 64.0773C68.1338 64.277 67.9434 64.4767 67.6616 64.6186C67.5122 64.6522 67.3797 64.7605 67.264 64.9434C66.9747 65.4008 66.5024 65.7424 66.1048 66.0672C65.8398 66.2837 65.5169 66.5917 65.3265 66.7915C64.9868 67.0248 64.7385 67.316 64.3988 67.5493C64.1169 67.6912 63.8519 67.9078 63.5868 68.1243C63.1314 68.5406 62.5676 68.8243 61.9535 68.8841C61.2162 69.4422 60.6021 69.502 59.9712 69.4871ZM61.7776 55.9016C61.9027 56.1088 61.8952 56.4242 61.8878 56.7397C61.9046 56.8144 61.8299 56.8312 61.8057 57.072C61.688 56.5493 61.7534 56.1424 61.7776 55.9016ZM61.8391 54.0835C61.8989 54.6976 61.9419 55.237 61.7776 55.9016C61.6264 55.2296 61.6581 54.6733 61.8391 54.0835ZM66.3427 34.0075C66.4173 33.9907 66.4005 33.9161 66.4005 33.9161C66.3837 33.8414 66.2923 33.7836 66.2923 33.7836C66.0683 33.834 65.7528 33.8265 65.5456 33.9516C63.8619 34.4874 62.2118 35.1725 60.5617 35.8576C60.4871 35.8744 60.4124 35.8912 60.3545 35.9827C60.2799 35.9995 60.2967 36.0741 60.2967 36.0741C60.3135 36.1488 60.4049 36.2067 60.4796 36.1899C60.7036 36.1395 60.9276 36.089 61.1348 35.964C61.9225 35.6298 62.7102 35.2957 63.4979 34.9615C64.0785 34.7524 64.7504 34.6012 65.331 34.3921C65.5382 34.267 65.9861 34.1662 66.3427 34.0075Z" fill="#222222"/>
<path d="M80.4498 60.0935C80.0429 60.0281 79.6527 60.0375 79.2962 60.1962C78.9229 60.2802 78.557 60.0487 78.208 59.8919C77.8589 59.7351 77.5098 59.5784 77.409 59.1304C77.3754 58.981 77.2839 58.9232 77.1514 59.0314C76.737 59.2816 76.3375 58.9008 75.9474 58.9102C75.3818 58.4883 74.833 58.1411 74.665 57.3945C74.581 57.0212 74.5138 56.7225 74.5044 56.3324C74.3943 55.4943 74.2094 54.6729 74.0993 53.8348C74.0489 53.6108 74.0899 53.4447 74.0395 53.2207C74.0638 52.9799 74.088 52.7391 74.0208 52.4404C73.9107 51.6023 74.0245 50.7138 74.0637 49.8421C74.1364 49.1197 74.1513 48.4887 74.1495 47.7832C74.155 46.7621 74.2352 45.7242 74.1493 44.6453C74.3546 43.8147 74.153 42.9187 74.1922 42.047C74.166 41.5822 74.2146 41.1006 74.2631 40.619C74.3863 40.1206 74.3769 39.7304 74.3508 39.2656C74.3004 39.0416 74.2499 38.8177 74.3657 38.6347C74.5859 37.1731 74.416 35.7209 74.4868 34.2929C74.5092 33.3465 74.7724 32.4244 74.8694 31.4612C74.959 30.8135 75.0654 30.2404 75.1549 29.5927C75.2371 29.2604 75.3939 28.9113 75.5506 28.5623C75.7821 28.1964 75.9221 27.7727 75.9706 27.2911C75.9855 26.6601 76.1665 26.0703 76.4223 25.4636C76.4801 25.3721 76.4465 25.2228 76.5212 25.206C77.0083 24.2335 77.8129 23.974 78.8937 24.5937C79.1681 24.7673 79.4257 24.8662 79.6833 24.9651C80.4561 25.2619 80.947 25.7005 80.9825 26.5554C80.9993 26.6301 81.0329 26.7794 81.0497 26.8541C81.1001 27.0781 81.1748 27.0613 81.3988 27.0109C81.8468 26.9101 81.8468 26.9101 81.8972 27.1341C81.9812 27.5074 82.0484 27.806 81.9663 28.1383C81.9103 28.9354 82.0783 29.682 82.1549 30.3708C82.1306 30.6116 82.181 30.8356 82.3061 31.0428C82.448 31.3247 82.4573 31.7148 82.3005 32.0639C82.2184 32.3961 82.1699 32.8777 82.1046 33.2846C82.1214 33.3593 82.1382 33.434 82.155 33.5086C82.2465 33.5665 82.3043 33.475 82.3622 33.3836C82.4369 33.3668 82.4201 33.2921 82.4947 33.2753C82.644 33.2417 82.603 33.4078 82.6945 33.4657C82.7038 33.8558 82.6217 34.1881 82.4649 34.5372C82.1513 35.2353 82.1868 36.0902 82.114 36.8126C82.1308 36.8873 82.0898 37.0534 82.2559 37.0945C82.3306 37.0777 82.3884 36.9862 82.4463 36.8947C82.5284 36.5625 82.5191 36.1723 82.7505 35.8065C82.7935 36.3459 82.7618 36.9022 82.7879 37.367C82.7581 38.6288 82.7283 39.8907 82.6238 41.1693C82.6574 41.3187 82.5417 41.5016 82.5921 41.7256C82.3904 40.8296 82.4128 39.8832 82.5098 38.92C82.5341 38.6792 82.5584 38.4384 82.5826 38.1976C82.5658 38.123 82.5322 37.9736 82.3829 38.0072C82.1421 37.983 81.9928 38.0166 82.0096 38.0913C81.9853 38.3321 81.961 38.5729 81.92 38.739C81.7576 40.1091 81.8939 41.412 81.8063 42.7653C81.8231 42.84 81.8399 42.9147 81.8567 42.9893C81.9575 43.4373 81.8922 43.8443 81.8436 44.3259C81.8194 44.5667 81.7205 44.8243 81.7709 45.0483C81.784 46.8496 81.7057 48.593 81.5695 50.4279C81.5209 50.9095 81.5639 51.449 81.6815 51.9716C81.6983 52.0463 81.7151 52.121 81.7898 52.1042C81.8644 52.0874 81.9223 51.9959 81.9223 51.9959C82.0212 51.7383 82.0287 51.4228 81.9447 51.0495C81.9838 50.1778 81.9483 49.3229 82.1536 48.4922C82.3123 48.8487 82.3217 49.2389 82.2564 49.6458C82.191 50.0527 82.2004 50.4428 82.2265 50.9076C82.1855 51.0738 82.2191 51.2231 82.2695 51.4471C82.3199 51.6711 82.5943 51.8447 82.8761 51.7028C83.0255 51.6692 83.158 51.5609 83.2905 51.4527C84.3097 50.7526 85.4371 50.1851 86.5478 49.543C86.8875 49.3096 87.2608 49.2256 87.692 49.0501C88.14 48.9493 88.5301 48.94 89.0285 49.0632C89.4523 49.2031 89.9338 49.2517 90.4322 49.3748C90.5984 49.4159 90.7645 49.457 90.9474 49.5727C91.205 49.6716 91.3133 49.8041 91.2891 50.0449C91.3059 50.1196 91.3059 50.1196 91.3059 50.1196C91.2816 50.3604 91.0165 50.5769 91.2909 50.7505C91.4907 50.9409 91.6475 50.5918 91.8547 50.4668C91.9293 50.45 92.004 50.4332 92.0787 50.4164C92.1533 50.3996 92.1869 50.5489 92.2037 50.6236C92.172 51.1798 91.9574 51.6204 91.4851 51.962C90.6153 52.6284 89.7287 53.2201 88.9503 53.9444C87.5503 55.0439 86.1336 56.0688 84.8251 57.2261C83.9889 58.0419 83.078 58.8744 82.1167 59.483C81.5698 59.8414 81.0807 60.1084 80.4498 60.0935ZM77.0897 54.5739C77.0728 54.4992 77.0729 54.4992 76.9982 54.516C76.9235 54.5328 76.8993 54.7736 76.9161 54.8483C76.9329 54.923 76.9329 54.923 76.9907 54.8315C77.0822 54.8894 77.1811 54.6318 77.0897 54.5739ZM76.9869 53.4203C77.0859 53.1627 77.1848 52.9051 77.0672 52.3825C76.8525 52.823 76.9197 53.1217 76.9869 53.4203ZM77.2088 46.3887C77.2331 46.1479 77.1827 45.9239 77.1155 45.6252C77.0819 45.4759 77.0315 45.2519 77.0893 45.1604C77.1136 44.9196 77.2125 44.662 77.1789 44.5127C77.1621 44.438 77.1453 44.3634 77.1285 44.2887C77.037 44.2308 76.9213 44.4138 77.0296 44.5463C77.0053 44.7871 77.1304 44.9943 77.1808 45.2183C77.1397 45.3844 77.1901 45.6084 77.2237 45.7577C77.0334 45.9575 77.0091 46.1983 77.0595 46.4223C77.0763 46.4969 77.0931 46.5716 77.1678 46.5548C77.151 46.4801 77.2088 46.3887 77.2088 46.3887ZM82.3476 43.428C82.4652 43.9506 82.566 44.3986 82.5175 44.8802C82.4447 45.6026 82.4466 46.3082 82.4485 47.0138C82.4915 47.5533 82.5176 48.0181 82.2283 48.4754C82.0995 46.857 82.0117 45.0725 82.3476 43.428ZM82.4091 41.6099C82.4689 42.224 82.6033 42.8213 82.4223 43.4112C82.1385 42.8475 82.1534 42.2165 82.4091 41.6099Z" fill="#222222"/>
<path d="M95.9651 54.0916C95.8569 53.9591 95.9147 53.8676 95.9726 53.7761C96.2619 53.3188 96.5848 53.0108 96.9656 52.6113C97.2885 52.3033 97.6114 51.9953 97.9344 51.6873C98.0669 51.579 98.1658 51.3214 98.2983 51.2132C98.373 51.1964 98.2815 51.1385 98.2647 51.0638C98.2479 50.9892 98.1565 50.9313 98.0239 51.0396C97.477 51.398 97.0216 51.8143 96.6744 52.3631C96.3683 52.7457 96.0622 53.1284 95.6814 53.5279C95.5488 53.6362 95.491 53.7276 95.3585 53.8359C95.0934 54.0524 94.8526 54.0282 94.6361 53.7631C94.5614 53.7799 94.5446 53.7053 94.5278 53.6306C94.3187 53.0501 93.8614 52.7608 93.4619 52.38C93.1707 52.1317 93.012 51.7752 92.9859 51.3104C92.9597 50.8456 92.9914 50.2894 93.2975 49.9067C93.5122 49.4662 93.7847 48.9342 94.0908 48.5515C94.3055 48.1109 94.3876 47.7787 94.2121 47.3475C93.9694 46.6176 93.8182 45.9456 93.667 45.2737C93.2899 43.9465 93.2114 42.5521 93.0004 41.266C92.711 38.5855 92.6456 35.8546 92.5802 33.1237C92.5857 32.1027 92.5166 31.0984 92.6715 30.0437C92.7443 29.3214 92.7424 28.6158 92.7405 27.9102C92.7722 27.3539 92.8618 26.7062 92.9682 26.1331C93.222 24.8209 93.3097 23.4675 93.6382 22.1385C93.8845 21.1417 93.9069 20.1953 94.2447 19.2564C94.3269 18.9241 94.4258 18.6665 94.5994 18.3921C94.814 17.9516 95.2284 17.7014 95.7268 17.8246C96.2252 17.9478 96.7068 17.9963 96.8991 18.5021C96.9495 18.7261 97.1324 18.8419 97.3732 18.8661C98.1703 18.9221 98.413 19.6519 98.7546 20.1242C98.8965 20.406 98.889 20.7215 99.1055 20.9866C99.3053 21.177 99.0234 21.3188 99.0738 21.5428C99.0328 21.709 99.1242 21.7668 99.3482 21.7164C99.7048 21.5577 99.7216 21.6324 99.7888 21.9311C99.9661 23.0678 100.086 24.2961 100.039 25.4833C100.073 25.6326 100.032 25.7987 99.9737 25.8902C99.8748 26.1478 99.8505 26.3886 99.9177 26.6873C99.9513 26.8366 100.043 26.8945 100.002 27.0606C99.9122 27.7083 99.9887 28.3971 100.048 29.0112C100.099 29.2352 100.058 29.4014 100.017 29.5675C99.9514 29.9744 99.8861 30.3814 99.9869 30.8294C100.054 31.128 99.8806 31.4024 99.7984 31.7347C99.7742 31.9755 99.6585 32.1584 99.8414 32.2741C100.116 32.4477 100.092 32.6885 99.9758 32.8715C99.7201 33.4781 99.8545 34.0755 99.7649 34.7232C99.7817 34.7978 99.7239 34.8893 99.7407 34.964C100.123 35.2701 99.9087 35.7106 99.7519 36.0597C99.6698 36.392 99.5709 36.6496 99.6381 36.9482C99.7632 37.1554 99.7389 37.3962 99.6232 37.5792C99.4496 37.8536 99.3675 38.1858 99.584 38.4509C99.6755 38.5087 99.6344 38.6749 99.5765 38.7663C99.5112 39.1733 99.5206 39.5634 99.4553 39.9703C99.6475 40.4762 99.0596 41.0007 99.4012 41.473C99.6681 41.962 99.4871 42.5519 99.5132 43.0167C99.5468 43.166 99.5058 43.3322 99.4479 43.4236C99.4573 43.8138 99.7317 43.9873 100.105 43.9033C100.329 43.8529 100.536 43.7278 100.669 43.6196C101.141 43.278 101.721 43.0689 102.211 42.8019C103.131 42.3595 102.584 42.7179 103.504 42.2755C104.632 41.708 104.299 41.6259 105.494 41.357C105.701 41.232 106 41.1648 106.224 41.1143C107.327 40.7876 108.365 40.8679 109.255 41.6873C109.638 41.9934 110.004 42.2249 110.295 42.4731C110.752 42.7624 110.986 43.1022 111.086 43.5502C111.137 43.7741 111.262 43.9813 111.445 44.0971C111.553 44.2296 111.57 44.3043 111.529 44.4704C111.297 44.8363 110.941 44.9949 110.534 44.9296C109.903 44.9147 109.306 45.0491 108.708 45.1835C108.053 45.4094 108.552 45.5326 107.93 45.9078C107.441 46.1748 107.234 46.2999 106.745 46.5668C105.709 47.1922 106.198 46.9252 105.179 47.6252C104.574 48.0751 103.952 48.4503 103.348 48.9002C102.403 49.5834 101.459 50.2667 100.548 51.0992C99.6199 51.8571 98.709 52.6897 97.6899 53.3897C97.8635 53.1153 98.0371 52.8409 98.2274 52.6412C98.3768 52.6075 98.4346 52.5161 98.4925 52.4246C98.5672 52.4078 98.5504 52.3331 98.4757 52.3499C98.401 52.3667 98.401 52.3667 98.401 52.3667C98.3432 52.4582 98.2853 52.5497 98.2274 52.6412C97.6637 52.9249 97.2829 53.3244 96.8275 53.7407C96.5624 53.9572 96.2974 54.1737 96.0155 54.3156C96.1313 54.1327 96.0566 54.1495 95.9651 54.0916ZM94.3634 51.1573C94.7778 50.9072 95.0093 50.5413 95.2575 50.2501C95.3901 50.1418 95.4479 50.0503 95.5058 49.9589C95.5637 49.8674 95.6215 49.7759 95.5132 49.6434C95.4386 49.6602 95.3639 49.677 95.2892 49.6938C95.2146 49.7106 95.2146 49.7106 95.1567 49.8021C94.7759 50.2016 94.4866 50.6589 94.3634 51.1573C94.2309 51.2656 94.173 51.357 94.1152 51.4485C94.2477 51.3402 94.3056 51.2488 94.3634 51.1573ZM95.9967 50.3975C96.0546 50.3061 96.0378 50.2314 96.021 50.1567C95.9463 50.1735 95.8717 50.1903 95.797 50.2071C95.4162 50.6066 95.1269 51.0639 94.804 51.372C95.3098 51.1797 95.6906 50.7802 95.9967 50.3975ZM101.645 48.6557C103.874 47.056 104.37 46.4735 106.849 45.2881C106.999 45.2545 107.131 45.1463 107.264 45.038C107.247 44.9633 107.247 44.9633 107.23 44.8887C107.155 44.9055 107.081 44.9223 107.006 44.9391C106.086 45.3815 105.505 45.5906 104.676 46.0909C103.433 46.8413 103.79 46.6826 102.638 47.4909C102.017 47.8661 101.337 48.3328 100.732 48.7827C100.525 48.9078 100.318 49.0329 100.219 49.2905C100.236 49.3651 100.253 49.4398 100.269 49.5145C100.344 49.4977 100.436 49.5555 100.51 49.5387C100.833 49.2307 101.231 48.9059 101.645 48.6557ZM100.654 50.5262C100.654 50.5262 100.579 50.543 100.563 50.4683C100.579 50.543 100.505 50.5598 100.505 50.5598C100.521 50.6344 100.521 50.6344 100.521 50.6344C100.579 50.543 100.579 50.543 100.654 50.5262ZM100.559 45.9193C101.106 45.5609 101.578 45.2193 102.216 44.9187C102.705 44.6518 103.12 44.4016 103.534 44.1515C103.592 44.06 103.667 44.0432 103.741 44.0264C103.799 43.9349 103.874 43.9181 103.765 43.7856C103.749 43.7109 103.691 43.8024 103.616 43.8192C102.339 44.4203 101.154 45.0793 99.9856 45.8129C100.002 45.8876 99.8531 45.9212 99.8531 45.9212C99.8699 45.9958 99.8699 45.9958 99.8867 46.0705C99.9035 46.1452 99.9035 46.1452 99.9781 46.1284C100.053 46.1116 100.053 46.1116 100.127 46.0948C100.351 46.0444 100.484 45.9361 100.559 45.9193ZM100.452 46.4923C100.527 46.4755 100.602 46.4587 100.602 46.4587C100.676 46.4419 100.659 46.3673 100.585 46.3841L100.51 46.4009L100.452 46.4923C100.469 46.567 100.303 46.526 100.32 46.6006C100.394 46.5838 100.378 46.5092 100.452 46.4923ZM101.979 49.4435C101.962 49.3688 101.962 49.3688 101.962 49.3688C101.979 49.4435 101.905 49.4603 101.83 49.4771C101.772 49.5685 101.864 49.6264 101.864 49.6264C101.938 49.6096 101.921 49.5349 101.979 49.4435ZM103.488 48.4765C103.562 48.4597 103.545 48.385 103.471 48.4018C103.454 48.3272 103.396 48.4186 103.396 48.4186C103.413 48.4933 103.264 48.5269 103.297 48.6762C103.355 48.5848 103.413 48.4933 103.488 48.4765ZM98.9995 30.9731C99.1227 30.4747 99.0219 30.0267 99.0704 29.5451C98.9957 29.5619 98.9789 29.4873 98.9789 29.4873C98.9042 29.5041 98.8296 29.5209 98.8464 29.5955C98.7064 30.0193 98.8072 30.4673 98.8334 30.9321C98.7587 30.9489 98.9248 30.9899 98.9248 30.9899C98.9995 30.9731 98.9995 30.9731 98.9995 30.9731ZM98.9228 27.1465C98.9396 27.2212 98.865 27.238 98.8986 27.3873C98.9564 27.2958 98.9396 27.2212 98.9228 27.1465ZM105.377 47.11C105.36 47.0354 105.434 47.0186 105.509 47.0018C105.434 47.0186 105.377 47.11 105.377 47.11C105.227 47.1436 105.227 47.1436 105.377 47.11ZM105.548 42.9922C105.531 42.9175 105.531 42.9175 105.531 42.9175C105.457 42.9344 105.307 42.968 105.249 43.0594C105.192 43.1509 105.266 43.1341 105.283 43.2088C105.341 43.1173 105.473 43.009 105.548 42.9922Z" fill="#222222"/>
<path d="M117.424 44.8698C117.017 44.8044 116.61 44.7391 116.244 44.5077C115.089 43.9048 113.858 43.3187 112.819 42.5329C111.962 41.8628 111.221 41.0098 110.612 40.0485C110.379 39.7087 110.237 39.4269 110.004 39.0872C109.645 38.5402 109.436 37.9597 109.302 37.3624C109.117 36.5411 108.932 35.7198 108.764 34.9731C108.421 33.7953 108.409 32.6995 108.456 31.5124C108.478 30.566 108.426 29.6364 108.523 28.6732C108.695 27.6932 108.775 26.6553 109.021 25.6585C109.079 25.5671 109.046 25.4177 109.087 25.2516C109.215 23.7322 109.602 22.3116 110.063 20.8743C110.087 20.6335 110.277 20.4338 110.302 20.193C110.458 19.8439 110.673 19.4034 110.83 19.0543C111.25 17.7831 111.944 16.6855 112.73 15.6457C113.152 15.0801 113.624 14.7385 114.171 14.3801C114.569 14.0553 115.05 14.1038 115.375 14.5014C114.587 14.8355 114.091 15.418 113.869 16.174L113.852 16.0993C114.473 15.7241 114.97 15.1417 115.375 14.5014C115.765 14.492 116.213 14.3912 116.57 14.2326C117.714 13.7397 118.826 13.8031 119.965 14.3314C120.663 14.6449 121.378 15.0332 122.093 15.4214C123.523 16.1979 124.572 17.3738 125.505 18.7327C126.381 20.1831 127.049 21.7585 127.344 23.4179C127.495 24.0899 127.738 24.8198 127.815 25.5086C127.831 25.5832 127.848 25.6579 127.848 25.6579C128.25 26.7443 128.112 27.8736 128.14 29.044C127.973 29.0029 127.824 29.0365 127.875 29.2605C127.8 29.2773 127.891 29.3352 127.908 29.4098C127.908 29.4098 127.983 29.393 127.891 29.3352C127.949 29.2437 128.007 29.1522 128.065 29.0608C128.151 30.1397 128.237 31.2186 128.007 32.2901C127.852 33.3447 127.623 34.4162 127.393 35.4877C127.139 36.7999 126.662 38.1626 126.15 39.3759C125.68 40.4231 125.118 41.4125 124.523 42.2525C124.332 42.4522 124.2 42.5605 124.084 42.7434C123.843 42.7192 123.636 42.8442 123.537 43.1018C122.942 43.9418 122.113 44.4421 121.234 44.7184C119.873 44.9462 118.645 45.0657 117.424 44.8698ZM111.291 23.8926C111.366 23.8758 111.349 23.8012 111.291 23.8926C111.258 23.7433 111.258 23.7433 111.291 23.8926C111.233 23.9841 111.233 23.9841 111.25 24.0588C111.308 23.9673 111.291 23.8926 111.291 23.8926ZM111.627 22.2481C111.685 22.1566 111.76 22.1398 111.743 22.0652C111.784 21.899 111.767 21.8244 111.808 21.6582C111.791 21.5836 111.849 21.4921 111.907 21.4006C111.965 21.3092 111.965 21.3092 112.006 21.143L112.023 21.2177C112.04 21.2924 111.89 21.326 111.907 21.4006C111.924 21.4753 111.866 21.5668 111.808 21.6582C111.842 21.8076 111.784 21.899 111.743 22.0652C111.668 22.082 111.685 22.1566 111.627 22.2481C111.603 22.4889 111.47 22.5972 111.521 22.8212C111.636 22.6382 111.677 22.4721 111.627 22.2481ZM118.644 38.7901C118.9 38.1834 119.247 37.6346 119.52 37.1026C120.007 36.13 120.311 35.0418 120.615 33.9535C120.821 33.1228 121.192 32.3332 121.231 31.4615C121.321 30.8138 121.41 30.1661 121.575 29.5015C121.838 28.5794 121.918 27.5415 122.015 26.5784C122.071 25.7813 122.052 25.001 122.034 24.2208C122.086 22.0125 121.615 19.9219 120.714 18.0068C120.589 17.7996 120.447 17.5177 120.339 17.3852C120.122 17.1201 119.956 17.0791 119.691 17.2956C119.409 17.4375 119.144 17.654 118.862 17.7959C118.373 18.0628 117.901 18.4045 117.611 18.8618C117.421 19.0615 117.247 19.3359 116.966 19.4778C116.891 19.4946 116.891 19.4946 116.816 19.5114C116.799 19.4368 116.783 19.3621 116.783 19.3621C117.13 18.8133 117.494 18.3391 117.916 17.7735C118.048 17.6653 118.239 17.4655 118.263 17.2247C118.246 17.1501 118.229 17.0754 118.229 17.0754L118.155 17.0922C118.022 17.2005 117.947 17.2173 117.815 17.3255C117.4 17.5757 117.111 18.033 116.805 18.4157C116.176 19.1064 115.805 19.896 115.707 20.8592C115.584 21.3576 115.478 21.9306 115.355 22.429C115.263 22.3712 115.321 22.2797 115.23 22.2218C115.121 22.0893 115.006 22.2722 115.039 22.4216C114.875 23.0861 114.785 23.7338 114.879 24.4973C114.821 24.5888 114.763 24.6802 114.705 24.7717C114.606 25.0293 114.599 25.3448 114.731 25.2365C114.864 25.1282 114.905 24.9621 114.871 24.8128C114.838 24.6634 114.896 24.572 114.879 24.4973C114.978 24.2397 115.093 24.0568 115.118 23.816C115.163 25.061 114.95 26.2071 114.771 27.5026C114.689 27.8349 114.698 28.225 114.541 28.5741C114.351 28.7738 114.326 29.0146 114.302 29.2554C114.319 29.3301 114.353 29.4794 114.427 29.4626C114.502 29.4458 114.56 29.3543 114.618 29.2628C114.692 29.246 114.692 29.246 114.75 29.1546C114.767 29.2292 114.858 29.2871 114.858 29.2871C114.868 29.6772 114.802 30.0842 114.72 30.4164C114.662 30.5079 114.513 30.5415 114.455 30.633C114.472 30.7076 114.414 30.7991 114.431 30.8738C114.465 31.0231 114.597 30.9148 114.689 30.9727C114.773 31.346 114.765 31.6615 114.683 31.9937C114.608 32.0105 114.575 31.8612 114.534 32.0273C114.608 32.0105 114.608 32.0105 114.683 31.9937C114.676 32.3092 114.743 32.6079 114.793 32.8319C115.107 35.2716 115.587 37.7523 116.498 40.0576C116.515 40.1322 116.365 40.1659 116.399 40.3152C116.382 40.2405 116.44 40.1491 116.498 40.0576C116.572 40.0408 116.647 40.024 116.739 40.0818C117.088 40.2386 117.369 40.0968 117.692 39.7887C118.09 39.4639 118.413 39.1559 118.644 38.7901ZM114.629 30.3586C114.662 30.5079 114.638 30.7487 114.672 30.898C114.638 30.7487 114.679 30.5826 114.629 30.3586ZM114.618 26.125C114.461 26.4741 114.453 26.7895 114.586 26.6813C114.627 26.5151 114.576 26.2911 114.618 26.125ZM112.805 18.7668C112.788 18.6921 112.846 18.6006 112.904 18.5092C112.887 18.4345 112.962 18.4177 112.928 18.2684C112.986 18.1769 113.06 18.1601 113.027 18.0108C113.085 17.9193 113.159 17.9025 113.143 17.8278C113.126 17.7532 113.184 17.6617 113.242 17.5702C113.258 17.6449 113.109 17.6785 113.143 17.8278C113.159 17.9025 113.01 17.9361 113.027 18.0108C113.044 18.0854 112.986 18.1769 112.928 18.2684C112.945 18.343 112.887 18.4345 112.904 18.5092C112.846 18.6006 112.788 18.6921 112.805 18.7668C112.747 18.8582 112.672 18.875 112.706 19.0244C112.672 18.875 112.805 18.7668 112.805 18.7668ZM115.082 22.961C115.123 22.7949 115.164 22.6288 115.28 22.4458C115.239 22.612 115.289 22.836 115.174 23.0189L115.099 23.0357C115.082 22.961 115.082 22.961 115.082 22.961ZM120.324 39.9809C121.243 38.8329 121.903 37.586 122.032 36.0665C121.999 35.9172 122.056 35.8257 122.098 35.6596C122.131 35.8089 122.073 35.9004 122.032 36.0665C122.049 36.1412 121.974 36.158 121.9 36.1748C121.131 37.2892 120.636 38.5772 120.05 39.8073C119.992 39.8988 120.009 39.9735 120.1 40.0313C120.175 40.0145 120.324 39.9809 120.324 39.9809ZM115.442 21.0757C115.483 20.9096 115.467 20.8349 115.508 20.6688C115.491 20.5941 115.491 20.5941 115.399 20.5363L115.325 20.5531C115.284 20.7192 115.226 20.8107 115.185 20.9768C115.144 21.1429 115.177 21.2923 115.327 21.2586C115.385 21.1672 115.442 21.0757 115.442 21.0757ZM121.485 39.5627C121.982 38.9803 122.262 38.1329 122.559 37.3601C122.658 37.1025 122.682 36.8617 122.689 36.5462C122.094 37.3862 121.698 38.4166 121.286 39.3724C121.228 39.4638 121.261 39.6132 121.336 39.5964C121.353 39.671 121.411 39.5796 121.485 39.5627ZM123.358 41.2595C123.796 40.7685 124.144 40.2197 124.399 39.613C125.084 38.1253 125.437 36.5554 125.881 35.0434C125.864 34.9688 125.922 34.8773 125.756 34.8363C125.773 34.9109 125.624 34.9445 125.64 35.0192C125.443 35.5344 125.17 36.0664 124.972 36.5816C124.437 38.0357 123.901 39.4899 123.108 40.8451C123.066 41.0112 122.951 41.1941 122.91 41.3603C122.927 41.4349 122.927 41.4349 123.018 41.4928C123.035 41.5675 123.093 41.476 123.093 41.476C123.134 41.3099 123.283 41.2763 123.358 41.2595ZM124.875 40.6826C124.892 40.7573 124.817 40.7741 124.817 40.7741C124.817 40.7741 124.875 40.6826 124.875 40.6826ZM125.437 39.6933C125.57 39.585 125.611 39.4189 125.726 39.2359C126.006 38.3885 126.303 37.6157 126.583 36.7682C127.078 35.4802 127.257 34.1847 127.494 32.7978C127.559 32.3909 127.625 31.984 127.541 31.6106C127.639 31.353 127.664 31.1122 127.613 30.8882C127.514 31.1458 127.49 31.3866 127.557 31.6853C127.227 32.3088 127.154 33.0312 127.007 33.7704C126.975 34.3266 126.777 34.8418 126.654 35.3402C126.367 36.5032 125.913 37.625 125.626 38.788C125.527 39.0456 125.37 39.3946 125.42 39.6186C125.437 39.6933 125.512 39.6765 125.529 39.7511C125.379 39.7847 125.454 39.7679 125.437 39.6933ZM123.572 31.4054C123.456 31.5884 123.507 31.8124 123.54 31.9617C123.565 31.7209 123.772 31.5958 123.572 31.4054ZM123.734 30.0353C123.718 29.9607 123.718 29.9607 123.701 29.886C123.742 29.7199 123.725 29.6452 123.766 29.4791L123.841 29.4623L123.858 29.5369C123.874 29.6116 123.833 29.7777 123.85 29.8524C123.792 29.9439 123.718 29.9607 123.734 30.0353C123.66 30.0521 123.66 30.0521 123.677 30.1268C123.751 30.11 123.826 30.0932 123.734 30.0353ZM127.07 26.3822C127.152 26.0499 126.936 25.7849 126.868 25.4862C126.852 25.4115 126.926 25.3947 126.909 25.3201C126.893 25.2454 126.893 25.2454 126.893 25.2454C126.818 25.2622 126.818 25.2622 126.835 25.3369C126.852 25.4115 126.868 25.4862 126.868 25.4862C126.861 25.8017 126.779 26.1339 126.846 26.4326C126.863 26.5073 126.954 26.5651 126.954 26.5651C127.012 26.4736 127.087 26.4568 127.07 26.3822Z" fill="#222222"/>
</g>
<defs>
<clipPath id="clip0_57_97">
<rect width="104.773" height="47.7562" fill="white" transform="translate(22.2973 34.1921) rotate(-12.6824)"/>
</clipPath>
</defs>
</svg>
