<svg width="16" height="16" viewBox="0 0 16 16" fill="none" xmlns="http://www.w3.org/2000/svg">
<path fill-rule="evenodd" clip-rule="evenodd" d="M9.73292 1.25234C8.79539 0.249221 7.20461 0.249221 6.26708 1.25234C5.79948 1.75265 5.13846 2.02645 4.45404 2.00332C3.0818 1.95695 1.95695 3.0818 2.00332 4.45404C2.02645 5.13846 1.75265 5.79948 1.25234 6.26708C0.249221 7.20461 0.249221 8.79539 1.25234 9.73292C1.75265 10.2005 2.02645 10.8615 2.00332 11.546C1.95695 12.9182 3.0818 14.0431 4.45404 13.9967C5.13846 13.9735 5.79948 14.2473 6.26708 14.7477C7.20461 15.7508 8.79539 15.7508 9.73292 14.7477C10.2005 14.2473 10.8615 13.9735 11.546 13.9967C12.9182 14.0431 14.0431 12.9182 13.9967 11.546C13.9735 10.8615 14.2473 10.2005 14.7477 9.73292C15.7508 8.79539 15.7508 7.20461 14.7477 6.26708C14.2473 5.79948 13.9735 5.13846 13.9967 4.45404C14.0431 3.0818 12.9182 1.95695 11.546 2.00332C10.8615 2.02645 10.2005 1.75265 9.73292 1.25234ZM11.0267 6.51871C11.2442 6.29683 11.2406 5.94069 11.0187 5.72325C10.7968 5.50582 10.4407 5.50941 10.2233 5.73129L7.06883 8.95009C7.03596 8.98363 7.00755 9.0126 6.98208 9.03825C6.95864 9.01073 6.93254 8.97967 6.90233 8.94371L5.80571 7.6382C5.60589 7.40033 5.25108 7.36948 5.0132 7.56929C4.77533 7.7691 4.74448 8.12392 4.94429 8.36179L6.04092 9.6673L6.05496 9.68403C6.14124 9.78681 6.23335 9.89653 6.322 9.98084C6.42274 10.0767 6.5707 10.1916 6.78046 10.2353C6.88274 10.2565 6.98785 10.2606 7.09146 10.2472C7.30394 10.2198 7.46027 10.1164 7.56805 10.0286C7.66289 9.95134 7.76314 9.84898 7.85703 9.75311L7.87232 9.73751L11.0267 6.51871Z" fill="#EEFF04"/>
</svg>
