<svg width="14" height="15" viewBox="0 0 14 15" fill="none" xmlns="http://www.w3.org/2000/svg">
<path d="M7.79828 2.56601C4.97334 0.682518 3.56088 -0.259229 2.40622 0.0671642C2.04414 0.169513 1.70854 0.349108 1.42253 0.593585C0.510422 1.37323 0.510422 3.07086 0.510422 6.46612V8.53499C0.510422 11.9299 0.510422 13.6273 1.42245 14.407C1.70844 14.6515 2.04401 14.8311 2.40606 14.9334C3.56065 15.2599 4.97306 14.3184 7.79789 12.4354L9.34954 11.401C11.6821 9.84616 12.8484 9.06872 13.0594 8.00957C13.1262 7.67381 13.1263 7.32817 13.0594 6.99241C12.8486 5.93323 11.6823 5.15568 9.34993 3.60056L7.79828 2.56601Z" fill="#222222"/>
</svg>
