<svg width="30" height="30" viewBox="0 0 30 30" fill="none" xmlns="http://www.w3.org/2000/svg">
<rect width="30" height="30" rx="5" fill="#FF0000"/>
<path fill-rule="evenodd" clip-rule="evenodd" d="M7.5872 10.8844C6.95196 11.8034 6.92831 12.7213 6.88103 14.5572C6.87711 14.7094 6.875 14.8575 6.875 15.0002C6.875 15.1428 6.87711 15.2909 6.88103 15.4431C6.92831 17.279 6.95196 18.1969 7.5872 19.1159C7.76192 19.3687 8.08478 19.7155 8.3244 19.9079C9.19557 20.6073 10.1317 20.6987 12.0039 20.8815C12.9752 20.9764 14.0056 21.0418 15 21.0418C15.9944 21.0418 17.0248 20.9764 17.9961 20.8815C19.8683 20.6987 20.8044 20.6073 21.6756 19.9079C21.9152 19.7155 22.2381 19.3687 22.4128 19.1159C23.048 18.1969 23.0717 17.279 23.119 15.4431C23.1229 15.2909 23.125 15.1428 23.125 15.0002C23.125 14.8575 23.1229 14.7094 23.119 14.5572C23.0717 12.7213 23.048 11.8034 22.4128 10.8844C22.2381 10.6316 21.9152 10.2848 21.6756 10.0924C20.8044 9.39307 19.8683 9.30165 17.9961 9.1188C17.0248 9.02395 15.9944 8.9585 15 8.9585C14.0056 8.9585 12.9752 9.02395 12.0039 9.1188C10.1317 9.30165 9.19557 9.39307 8.3244 10.0924C8.08478 10.2848 7.76192 10.6316 7.5872 10.8844ZM16.9659 14.041C16.7647 13.7992 16.337 13.5853 15.4814 13.1575C14.7691 12.8014 14.4129 12.6233 14.1256 12.5991C13.468 12.5439 12.8516 12.9249 12.6069 13.5377C12.5 13.8055 12.5 14.2037 12.5 15.0002C12.5 15.7966 12.5 16.1948 12.6069 16.4626C12.8516 17.0754 13.468 17.4564 14.1256 17.4012C14.4129 17.377 14.7691 17.199 15.4814 16.8428L15.4814 16.8428C16.337 16.415 16.7647 16.2011 16.9659 15.9593C17.4281 15.4034 17.4281 14.5969 16.9659 14.041Z" fill="white"/>
</svg>
