<svg width="30" height="30" viewBox="0 0 30 30" fill="none" xmlns="http://www.w3.org/2000/svg">
<rect width="30" height="30" rx="5" fill="#EA4C89"/>
<path fill-rule="evenodd" clip-rule="evenodd" d="M15.9 7.6875H14.1C11.4283 7.6875 10.0925 7.6875 9.15602 8.36788C8.85358 8.58761 8.58761 8.85358 8.36788 9.15602C7.6875 10.0925 7.6875 11.4283 7.6875 14.1V15.9C7.6875 18.5717 7.6875 19.9075 8.36788 20.844C8.58761 21.1464 8.85358 21.4124 9.15602 21.6321C10.0925 22.3125 11.4283 22.3125 14.1 22.3125H15.9C18.5717 22.3125 19.9075 22.3125 20.844 21.6321C21.1464 21.4124 21.4124 21.1464 21.6321 20.844C22.3125 19.9075 22.3125 18.5717 22.3125 15.9V14.1C22.3125 11.4283 22.3125 10.0925 21.6321 9.15602C21.4124 8.85358 21.1464 8.58761 20.844 8.36788C19.9075 7.6875 18.5717 7.6875 15.9 7.6875ZM18 15C18 16.6569 16.6569 18 15 18C13.3431 18 12 16.6569 12 15C12 13.3431 13.3431 12 15 12C16.6569 12 18 13.3431 18 15ZM19.125 11.625C19.5392 11.625 19.875 11.2892 19.875 10.875C19.875 10.4608 19.5392 10.125 19.125 10.125C18.7108 10.125 18.375 10.4608 18.375 10.875C18.375 11.2892 18.7108 11.625 19.125 11.625Z" fill="white"/>
</svg>
