<svg width="30" height="30" viewBox="0 0 30 30" fill="none" xmlns="http://www.w3.org/2000/svg">
<rect width="30" height="30" rx="5" fill="#3B5998"/>
<path d="M14.58 22.3125H15.42C15.87 22.3125 16.095 22.3125 16.2527 22.1979C16.3036 22.1609 16.3484 22.1161 16.3854 22.0652C16.5 21.9075 16.5 21.6825 16.5 21.2325V16.2188H17.67C18.12 16.2188 18.345 16.2188 18.5027 16.1042C18.5536 16.0672 18.5984 16.0224 18.6354 15.9714C18.75 15.8137 18.75 15.5887 18.75 15.1388V14.455C18.75 14.005 18.75 13.78 18.6354 13.6223C18.5984 13.5714 18.5536 13.5266 18.5027 13.4896C18.345 13.375 18.12 13.375 17.67 13.375H16.5V11.6113C16.5 11.1613 16.5 10.9363 16.6146 10.7786C16.6516 10.7276 16.6964 10.6828 16.7473 10.6458C16.905 10.5313 17.13 10.5313 17.58 10.5313H17.67C18.12 10.5313 18.345 10.5313 18.5027 10.4167C18.5536 10.3797 18.5984 10.3349 18.6354 10.2839C18.75 10.1262 18.75 9.90122 18.75 9.45125V8.7675C18.75 8.31753 18.75 8.09255 18.6354 7.93483C18.5984 7.88389 18.5536 7.8391 18.5027 7.80209C18.345 7.6875 18.12 7.6875 17.67 7.6875H17.28C15.7051 7.6875 14.9177 7.6875 14.3657 8.08856C14.1874 8.21809 14.0306 8.37487 13.9011 8.55315C13.5 9.10517 13.5 9.89261 13.5 11.4675V13.375H12.33C11.88 13.375 11.655 13.375 11.4973 13.4896C11.4464 13.5266 11.4016 13.5714 11.3646 13.6223C11.25 13.78 11.25 14.005 11.25 14.455V15.1388C11.25 15.5887 11.25 15.8137 11.3646 15.9714C11.4016 16.0224 11.4464 16.0672 11.4973 16.1042C11.655 16.2188 11.88 16.2188 12.33 16.2188H13.5V21.2325C13.5 21.6825 13.5 21.9075 13.6146 22.0652C13.6516 22.1161 13.6964 22.1609 13.7473 22.1979C13.905 22.3125 14.13 22.3125 14.58 22.3125Z" fill="white"/>
</svg>
