<svg width="17" height="22" viewBox="0 0 17 22" fill="none" xmlns="http://www.w3.org/2000/svg">
<path fill-rule="evenodd" clip-rule="evenodd" d="M10.5823 2.97182C13.0019 3.79708 14.6736 6.1936 14.4366 8.89458C14.3038 10.4093 14.7787 11.9146 15.7566 13.0789L16.2682 13.6879C17.6261 15.3045 16.4768 17.7708 14.3656 17.7708H10.8567H6.14178H2.63431C0.523066 17.7708 -0.626228 15.3045 0.731708 13.6879L1.24325 13.0789C2.22123 11.9146 2.69612 10.4093 2.56325 8.89458C2.32638 6.19432 3.99705 3.79836 6.41565 2.97248V2.92708C6.41565 1.77649 7.34839 0.84375 8.49898 0.84375C9.64957 0.84375 10.5823 1.77649 10.5823 2.92708V2.97182ZM10.5828 19.3333H6.4161C6.4161 20.4839 7.34884 21.4167 8.49944 21.4167C9.65003 21.4167 10.5828 20.4839 10.5828 19.3333Z" fill="#222222"/>
</svg>
