<svg width="30" height="32" viewBox="0 0 30 32" fill="none" xmlns="http://www.w3.org/2000/svg">
<path fill-rule="evenodd" clip-rule="evenodd" d="M15.0938 0.687012C14.8037 0.687012 14.5255 0.802246 14.3204 1.00736C14.1152 1.21248 14 1.49068 14 1.78076V30.2183C14 30.5083 14.1152 30.7865 14.3204 30.9917C14.5255 31.1968 14.8037 31.312 15.0938 31.312C15.3838 31.312 15.662 31.1968 15.8671 30.9917C16.0723 30.7865 16.1875 30.5083 16.1875 30.2183V1.78076C16.1875 1.49068 16.0723 1.21248 15.8671 1.00736C15.662 0.802246 15.3838 0.687012 15.0938 0.687012ZM19.4688 8.34326C19.1787 8.34326 18.9005 8.4585 18.6954 8.66361C18.4902 8.86873 18.375 9.14693 18.375 9.43701V23.6558C18.375 23.9458 18.4902 24.224 18.6954 24.4292C18.9005 24.6343 19.1787 24.7495 19.4688 24.7495C19.7588 24.7495 20.037 24.6343 20.2421 24.4292C20.4473 24.224 20.5625 23.9458 20.5625 23.6558V9.43701C20.5625 9.14693 20.4473 8.86873 20.2421 8.66361C20.037 8.4585 19.7588 8.34326 19.4688 8.34326ZM23.0704 5.38236C23.2755 5.17725 23.5537 5.06201 23.8438 5.06201C24.1338 5.06201 24.412 5.17725 24.6171 5.38236C24.8223 5.58748 24.9375 5.86568 24.9375 6.15576V26.937C24.9375 27.2271 24.8223 27.5053 24.6171 27.7104C24.412 27.9155 24.1338 28.0308 23.8438 28.0308C23.5537 28.0308 23.2755 27.9155 23.0704 27.7104C22.8652 27.5053 22.75 27.2271 22.75 26.937V6.15576C22.75 5.86568 22.8652 5.58748 23.0704 5.38236ZM28.2188 11.6245C27.9287 11.6245 27.6505 11.7397 27.4454 11.9449C27.2402 12.15 27.125 12.4282 27.125 12.7183V20.3745C27.125 20.6646 27.2402 20.9428 27.4454 21.1479C27.6505 21.353 27.9287 21.4683 28.2188 21.4683C28.5088 21.4683 28.787 21.353 28.9921 21.1479C29.1973 20.9428 29.3125 20.6646 29.3125 20.3745V12.7183C29.3125 12.4282 29.1973 12.15 28.9921 11.9449C28.787 11.7397 28.5088 11.6245 28.2188 11.6245ZM9.94535 8.66361C10.1505 8.4585 10.4287 8.34326 10.7188 8.34326C11.0088 8.34326 11.287 8.4585 11.4921 8.66361C11.6973 8.86873 11.8125 9.14693 11.8125 9.43701V23.6558C11.8125 23.9458 11.6973 24.224 11.4921 24.4292C11.287 24.6343 11.0088 24.7495 10.7188 24.7495C10.4287 24.7495 10.1505 24.6343 9.94535 24.4292C9.74023 24.224 9.625 23.9458 9.625 23.6558V9.43701C9.625 9.14693 9.74023 8.86873 9.94535 8.66361ZM6.34375 5.06201C6.05367 5.06201 5.77547 5.17725 5.57035 5.38236C5.36523 5.58748 5.25 5.86568 5.25 6.15576V26.937C5.25 27.2271 5.36523 27.5053 5.57035 27.7104C5.77547 27.9155 6.05367 28.0308 6.34375 28.0308C6.63383 28.0308 6.91203 27.9155 7.11715 27.7104C7.32227 27.5053 7.4375 27.2271 7.4375 26.937V6.15576C7.4375 5.86568 7.32227 5.58748 7.11715 5.38236C6.91203 5.17725 6.63383 5.06201 6.34375 5.06201ZM1.19535 11.9449C1.40047 11.7397 1.67867 11.6245 1.96875 11.6245C2.25883 11.6245 2.53703 11.7397 2.74215 11.9449C2.94727 12.15 3.0625 12.4282 3.0625 12.7183V20.3745C3.0625 20.6646 2.94727 20.9428 2.74215 21.1479C2.53703 21.353 2.25883 21.4683 1.96875 21.4683C1.67867 21.4683 1.40047 21.353 1.19535 21.1479C0.990234 20.9428 0.875 20.6646 0.875 20.3745V12.7183C0.875 12.4282 0.990234 12.15 1.19535 11.9449Z" fill="#222222"/>
</svg>
