<svg width="20" height="20" viewBox="0 0 20 20" fill="none" xmlns="http://www.w3.org/2000/svg">
<path fill-rule="evenodd" clip-rule="evenodd" d="M10 19.75C15.3848 19.75 19.75 15.3848 19.75 10C19.75 4.61522 15.3848 0.25 10 0.25C4.61522 0.25 0.25 4.61522 0.25 10C0.25 15.3848 4.61522 19.75 10 19.75ZM14.5 9.29931L11.3266 9.29932C11.1945 9.04967 10.994 8.8418 10.75 8.70067L10.75 4.54931C10.75 4.1351 10.4142 3.79931 10 3.79931C9.58579 3.79931 9.25 4.1351 9.25 4.54931L9.25 8.70067C8.80165 8.96003 8.5 9.44479 8.5 10C8.5 10.8284 9.17157 11.5 10 11.5C10.5346 11.5 11.0039 11.2203 11.2695 10.7993L14.5 10.7993C14.9142 10.7993 15.25 10.4635 15.25 10.0493C15.25 9.6351 14.9142 9.29931 14.5 9.29931Z" fill="white"/>
</svg>
