<svg width="519" height="197" viewBox="0 0 519 197" fill="none" xmlns="http://www.w3.org/2000/svg">
<path d="M91.3955 0C89.531 0 87.7427 0.740703 86.4243 2.05916C85.1058 3.37762 84.3651 5.16584 84.3651 7.03043V189.822C84.3651 191.686 85.1058 193.474 86.4243 194.793C87.7427 196.111 89.531 196.852 91.3955 196.852C93.2601 196.852 95.0483 196.111 96.3668 194.793C97.6853 193.474 98.426 191.686 98.426 189.822V7.03043C98.426 5.16584 97.6853 3.37762 96.3668 2.05916C95.0483 0.740703 93.2601 0 91.3955 0Z" fill="#222222"/>
<path d="M119.517 49.2129C117.653 49.2129 115.864 49.9536 114.546 51.2721C113.228 52.5905 112.487 54.3787 112.487 56.2433V147.639C112.487 149.503 113.228 151.292 114.546 152.61C115.864 153.929 117.653 154.669 119.517 154.669C121.382 154.669 123.17 153.929 124.489 152.61C125.807 151.292 126.548 149.503 126.548 147.639V56.2433C126.548 54.3787 125.807 52.5905 124.489 51.2721C123.17 49.9536 121.382 49.2129 119.517 49.2129Z" fill="#222222"/>
<path d="M147.639 28.1218C145.774 28.1218 143.986 28.8625 142.668 30.181C141.349 31.4995 140.609 33.2877 140.609 35.1523V168.73C140.609 170.595 141.349 172.383 142.668 173.702C143.986 175.02 145.774 175.761 147.639 175.761C149.504 175.761 151.292 175.02 152.61 173.702C153.929 172.383 154.669 170.595 154.669 168.73V35.1523C154.669 33.2877 153.929 31.4995 152.61 30.181C151.292 28.8625 149.504 28.1218 147.639 28.1218Z" fill="#222222"/>
<path d="M175.761 70.3042C173.896 70.3042 172.108 71.0449 170.789 72.3634C169.471 73.6818 168.73 75.47 168.73 77.3346V126.548C168.73 128.412 169.471 130.2 170.789 131.519C172.108 132.837 173.896 133.578 175.761 133.578C177.625 133.578 179.413 132.837 180.732 131.519C182.05 130.2 182.791 128.412 182.791 126.548V77.3346C182.791 75.47 182.05 73.6818 180.732 72.3634C179.413 71.0449 177.625 70.3042 175.761 70.3042Z" fill="#222222"/>
<path d="M63.2738 49.2129C61.4092 49.2129 59.621 49.9536 58.3026 51.2721C56.9841 52.5905 56.2434 54.3787 56.2434 56.2433V147.639C56.2434 149.503 56.9841 151.292 58.3026 152.61C59.621 153.929 61.4092 154.669 63.2738 154.669C65.1384 154.669 66.9266 153.929 68.2451 152.61C69.5636 151.292 70.3043 149.503 70.3043 147.639V56.2433C70.3043 54.3787 69.5636 52.5905 68.2451 51.2721C66.9266 49.9536 65.1384 49.2129 63.2738 49.2129Z" fill="#222222"/>
<path d="M35.1521 28.1218C33.2875 28.1218 31.4993 28.8625 30.1809 30.181C28.8624 31.4995 28.1217 33.2877 28.1217 35.1523V168.73C28.1217 170.595 28.8624 172.383 30.1809 173.702C31.4993 175.02 33.2875 175.761 35.1521 175.761C37.0167 175.761 38.8049 175.02 40.1234 173.702C41.4419 172.383 42.1826 170.595 42.1826 168.73V35.1523C42.1826 33.2877 41.4419 31.4995 40.1234 30.181C38.8049 28.8625 37.0167 28.1218 35.1521 28.1218Z" fill="#222222"/>
<path d="M7.03043 70.3042C5.16584 70.3042 3.37762 71.0449 2.05916 72.3634C0.740703 73.6818 0 75.47 0 77.3346V126.548C0 128.412 0.740703 130.2 2.05916 131.519C3.37762 132.837 5.16584 133.578 7.03043 133.578C8.89501 133.578 10.6832 132.837 12.0017 131.519C13.3201 130.2 14.0609 128.412 14.0609 126.548V77.3346C14.0609 75.47 13.3201 73.6818 12.0017 72.3634C10.6832 71.0449 8.89501 70.3042 7.03043 70.3042Z" fill="#222222"/>
<path d="M259.187 0C257.322 0 255.534 0.740703 254.215 2.05916C252.897 3.37762 252.156 5.16584 252.156 7.03043V189.822C252.156 191.686 252.897 193.474 254.215 194.793C255.534 196.111 257.322 196.852 259.187 196.852C261.051 196.852 262.839 196.111 264.158 194.793C265.476 193.474 266.217 191.686 266.217 189.822V7.03043C266.217 5.16584 265.476 3.37762 264.158 2.05916C262.839 0.740703 261.051 0 259.187 0Z" fill="#222222"/>
<path d="M287.308 49.2129C285.444 49.2129 283.656 49.9536 282.337 51.2721C281.019 52.5905 280.278 54.3787 280.278 56.2433V147.639C280.278 149.503 281.019 151.292 282.337 152.61C283.656 153.929 285.444 154.669 287.308 154.669C289.173 154.669 290.961 153.929 292.28 152.61C293.598 151.292 294.339 149.503 294.339 147.639V56.2433C294.339 54.3787 293.598 52.5905 292.28 51.2721C290.961 49.9536 289.173 49.2129 287.308 49.2129Z" fill="#222222"/>
<path d="M315.43 28.1218C313.565 28.1218 311.777 28.8625 310.459 30.181C309.14 31.4995 308.4 33.2877 308.4 35.1523V168.73C308.4 170.595 309.14 172.383 310.459 173.702C311.777 175.02 313.565 175.761 315.43 175.761C317.295 175.761 319.083 175.02 320.401 173.702C321.72 172.383 322.461 170.595 322.461 168.73V35.1523C322.461 33.2877 321.72 31.4995 320.401 30.181C319.083 28.8625 317.295 28.1218 315.43 28.1218Z" fill="#222222"/>
<path d="M343.552 70.3042C341.687 70.3042 339.899 71.0449 338.581 72.3634C337.262 73.6818 336.521 75.47 336.521 77.3346V126.548C336.521 128.412 337.262 130.2 338.581 131.519C339.899 132.837 341.687 133.578 343.552 133.578C345.416 133.578 347.205 132.837 348.523 131.519C349.842 130.2 350.582 128.412 350.582 126.548V77.3346C350.582 75.47 349.842 73.6818 348.523 72.3634C347.205 71.0449 345.416 70.3042 343.552 70.3042Z" fill="#222222"/>
<path d="M231.065 49.2129C229.2 49.2129 227.412 49.9536 226.094 51.2721C224.775 52.5905 224.035 54.3787 224.035 56.2433V147.639C224.035 149.503 224.775 151.292 226.094 152.61C227.412 153.929 229.2 154.669 231.065 154.669C232.93 154.669 234.718 153.929 236.036 152.61C237.355 151.292 238.095 149.503 238.095 147.639V56.2433C238.095 54.3787 237.355 52.5905 236.036 51.2721C234.718 49.9536 232.93 49.2129 231.065 49.2129Z" fill="#222222"/>
<path d="M202.943 28.1218C201.079 28.1218 199.29 28.8625 197.972 30.181C196.654 31.4995 195.913 33.2877 195.913 35.1523V168.73C195.913 170.595 196.654 172.383 197.972 173.702C199.29 175.02 201.079 175.761 202.943 175.761C204.808 175.761 206.596 175.02 207.915 173.702C209.233 172.383 209.974 170.595 209.974 168.73V35.1523C209.974 33.2877 209.233 31.4995 207.915 30.181C206.596 28.8625 204.808 28.1218 202.943 28.1218Z" fill="#222222"/>
<path d="M174.822 70.3042C172.957 70.3042 171.169 71.0449 169.85 72.3634C168.532 73.6818 167.791 75.47 167.791 77.3346V126.548C167.791 128.412 168.532 130.2 169.85 131.519C171.169 132.837 172.957 133.578 174.822 133.578C176.686 133.578 178.474 132.837 179.793 131.519C181.111 130.2 181.852 128.412 181.852 126.548V77.3346C181.852 75.47 181.111 73.6818 179.793 72.3634C178.474 71.0449 176.686 70.3042 174.822 70.3042Z" fill="#222222"/>
<path d="M426.978 0C425.113 0 423.325 0.740703 422.006 2.05916C420.688 3.37762 419.947 5.16584 419.947 7.03043V189.822C419.947 191.686 420.688 193.474 422.006 194.793C423.325 196.111 425.113 196.852 426.978 196.852C428.842 196.852 430.631 196.111 431.949 194.793C433.267 193.474 434.008 191.686 434.008 189.822V7.03043C434.008 5.16584 433.267 3.37762 431.949 2.05916C430.631 0.740703 428.842 0 426.978 0Z" fill="#222222"/>
<path d="M455.099 49.2129C453.235 49.2129 451.447 49.9536 450.128 51.2721C448.81 52.5905 448.069 54.3787 448.069 56.2433V147.639C448.069 149.503 448.81 151.292 450.128 152.61C451.447 153.929 453.235 154.669 455.099 154.669C456.964 154.669 458.752 153.929 460.071 152.61C461.389 151.292 462.13 149.503 462.13 147.639V56.2433C462.13 54.3787 461.389 52.5905 460.071 51.2721C458.752 49.9536 456.964 49.2129 455.099 49.2129Z" fill="#222222"/>
<path d="M483.221 28.1218C481.357 28.1218 479.568 28.8625 478.25 30.181C476.931 31.4995 476.191 33.2877 476.191 35.1523V168.73C476.191 170.595 476.931 172.383 478.25 173.702C479.568 175.02 481.357 175.761 483.221 175.761C485.086 175.761 486.874 175.02 488.192 173.702C489.511 172.383 490.252 170.595 490.252 168.73V35.1523C490.252 33.2877 489.511 31.4995 488.192 30.181C486.874 28.8625 485.086 28.1218 483.221 28.1218Z" fill="#222222"/>
<path d="M511.343 70.3042C509.478 70.3042 507.69 71.0449 506.372 72.3634C505.053 73.6818 504.312 75.47 504.312 77.3346V126.548C504.312 128.412 505.053 130.2 506.372 131.519C507.69 132.837 509.478 133.578 511.343 133.578C513.208 133.578 514.996 132.837 516.314 131.519C517.633 130.2 518.373 128.412 518.373 126.548V77.3346C518.373 75.47 517.633 73.6818 516.314 72.3634C514.996 71.0449 513.208 70.3042 511.343 70.3042Z" fill="#222222"/>
<path d="M398.856 49.2129C396.991 49.2129 395.203 49.9536 393.885 51.2721C392.566 52.5905 391.826 54.3787 391.826 56.2433V147.639C391.826 149.503 392.566 151.292 393.885 152.61C395.203 153.929 396.991 154.669 398.856 154.669C400.721 154.669 402.509 153.929 403.827 152.61C405.146 151.292 405.886 149.503 405.886 147.639V56.2433C405.886 54.3787 405.146 52.5905 403.827 51.2721C402.509 49.9536 400.721 49.2129 398.856 49.2129Z" fill="#222222"/>
<path d="M370.734 28.1218C368.87 28.1218 367.082 28.8625 365.763 30.181C364.445 31.4995 363.704 33.2877 363.704 35.1523V168.73C363.704 170.595 364.445 172.383 365.763 173.702C367.082 175.02 368.87 175.761 370.734 175.761C372.599 175.761 374.387 175.02 375.706 173.702C377.024 172.383 377.765 170.595 377.765 168.73V35.1523C377.765 33.2877 377.024 31.4995 375.706 30.181C374.387 28.8625 372.599 28.1218 370.734 28.1218Z" fill="#222222"/>
<path d="M342.613 70.3042C340.748 70.3042 338.96 71.0449 337.641 72.3634C336.323 73.6818 335.582 75.47 335.582 77.3346V126.548C335.582 128.412 336.323 130.2 337.641 131.519C338.96 132.837 340.748 133.578 342.613 133.578C344.477 133.578 346.265 132.837 347.584 131.519C348.902 130.2 349.643 128.412 349.643 126.548V77.3346C349.643 75.47 348.902 73.6818 347.584 72.3634C346.265 71.0449 344.477 70.3042 342.613 70.3042Z" fill="#222222"/>
</svg>
