<svg width="40" height="41" viewBox="0 0 40 41" fill="none" xmlns="http://www.w3.org/2000/svg">
<g clip-path="url(#clip0_80_226)">
<path fill-rule="evenodd" clip-rule="evenodd" d="M20 0.5C17.7267 0.5 15.5467 1.40286 13.9391 3.01048C12.3314 4.6181 11.4286 6.79811 11.4286 9.07144V24.3096C11.4286 26.5829 12.3314 28.7629 13.9391 30.3705C15.5467 31.9781 17.7267 32.881 20 32.881C22.2734 32.881 24.4534 31.9781 26.061 30.3705C27.6686 28.7629 28.5715 26.5829 28.5715 24.3096C28.5715 19.5572 28.5715 13.8238 28.5715 9.07144C28.5715 6.79811 27.6686 4.6181 26.061 3.01048C24.4534 1.40286 22.2734 0.5 20 0.5Z" fill="#222222"/>
<path fill-rule="evenodd" clip-rule="evenodd" d="M7.61902 10.9762V12.8809C7.61902 13.4067 8.04569 13.8333 8.5714 13.8333C9.09712 13.8333 9.52378 13.4067 9.52378 12.8809V10.9762C9.52378 10.4505 9.09712 10.0238 8.5714 10.0238C8.04569 10.0238 7.61902 10.4505 7.61902 10.9762Z" fill="#222222"/>
<path fill-rule="evenodd" clip-rule="evenodd" d="M7.61902 16.6904V22.4047C7.61902 22.9304 8.04569 23.357 8.5714 23.357C9.09712 23.357 9.52378 22.9304 9.52378 22.4047V16.6904C9.52378 16.1647 9.09712 15.738 8.5714 15.738C8.04569 15.738 7.61902 16.1647 7.61902 16.6904Z" fill="#222222"/>
<path fill-rule="evenodd" clip-rule="evenodd" d="M30.4762 10.9762V22.4048C30.4762 22.9305 30.9029 23.3571 31.4286 23.3571C31.9543 23.3571 32.381 22.9305 32.381 22.4048V10.9762C32.381 10.4505 31.9543 10.0238 31.4286 10.0238C30.9029 10.0238 30.4762 10.4505 30.4762 10.9762Z" fill="#222222"/>
<path fill-rule="evenodd" clip-rule="evenodd" d="M3.80957 12.881V20.5C3.80957 21.0257 4.23624 21.4524 4.76195 21.4524C5.28767 21.4524 5.71434 21.0257 5.71434 20.5V12.881C5.71434 12.3553 5.28767 11.9286 4.76195 11.9286C4.23624 11.9286 3.80957 12.3553 3.80957 12.881Z" fill="#222222"/>
<path fill-rule="evenodd" clip-rule="evenodd" d="M34.2858 12.881V20.5C34.2858 21.0257 34.7125 21.4524 35.2382 21.4524C35.7639 21.4524 36.1906 21.0257 36.1906 20.5V12.881C36.1906 12.3553 35.7639 11.9286 35.2382 11.9286C34.7125 11.9286 34.2858 12.3553 34.2858 12.881Z" fill="#222222"/>
<path fill-rule="evenodd" clip-rule="evenodd" d="M0 14.7858V18.5953C0 19.121 0.426667 19.5477 0.952383 19.5477C1.4781 19.5477 1.90477 19.121 1.90477 18.5953V14.7858C1.90477 14.2601 1.4781 13.8334 0.952383 13.8334C0.426667 13.8334 0 14.2601 0 14.7858Z" fill="#222222"/>
<path fill-rule="evenodd" clip-rule="evenodd" d="M38.0955 14.7858V18.5953C38.0955 19.121 38.5221 19.5477 39.0478 19.5477C39.5736 19.5477 40.0002 19.121 40.0002 18.5953V14.7858C40.0002 14.2601 39.5736 13.8334 39.0478 13.8334C38.5221 13.8334 38.0955 14.2601 38.0955 14.7858Z" fill="#222222"/>
<path fill-rule="evenodd" clip-rule="evenodd" d="M14.2858 40.5H25.7143C26.2401 40.5 26.6667 40.0734 26.6667 39.5477C26.6667 39.0219 26.2401 38.5953 25.7143 38.5953H14.2858C13.76 38.5953 13.3334 39.0219 13.3334 39.5477C13.3334 40.0734 13.76 40.5 14.2858 40.5Z" fill="#222222"/>
<path fill-rule="evenodd" clip-rule="evenodd" d="M20 36.6906C23.2838 36.6906 26.4324 35.3858 28.7543 33.0639C30.5848 31.2344 31.7819 28.8915 32.2077 26.3734C32.2953 25.8544 31.9457 25.363 31.4277 25.2753C30.9096 25.1877 30.4172 25.5372 30.3296 26.0553C29.9696 28.1868 28.9562 30.1696 27.4077 31.7172C25.4429 33.682 22.7781 34.7858 20 34.7858C17.2219 34.7858 14.5571 33.682 12.5924 31.7172C11.0438 30.1696 10.0305 28.1868 9.67047 26.0553C9.58285 25.5372 9.09048 25.1877 8.57239 25.2753C8.05429 25.363 7.70477 25.8544 7.79239 26.3734C8.2181 28.8915 9.41525 31.2344 11.2457 33.0639C13.5676 35.3858 16.7162 36.6906 20 36.6906Z" fill="#222222"/>
</g>
<defs>
<clipPath id="clip0_80_226">
<rect width="40" height="41" fill="white"/>
</clipPath>
</defs>
</svg>
