<svg width="156" height="41" viewBox="0 0 156 41" fill="none" xmlns="http://www.w3.org/2000/svg">
<path fill-rule="evenodd" clip-rule="evenodd" d="M20 0.5C17.7267 0.5 15.5467 1.40286 13.9391 3.01048C12.3314 4.6181 11.4286 6.79811 11.4286 9.07144V24.3096C11.4286 26.5829 12.3314 28.7629 13.9391 30.3705C15.5467 31.9781 17.7267 32.881 20 32.881C22.2734 32.881 24.4534 31.9781 26.061 30.3705C27.6686 28.7629 28.5715 26.5829 28.5715 24.3096C28.5715 19.5572 28.5715 13.8238 28.5715 9.07144C28.5715 6.79811 27.6686 4.6181 26.061 3.01048C24.4534 1.40286 22.2734 0.5 20 0.5Z" fill="#EEFF04"/>
<path fill-rule="evenodd" clip-rule="evenodd" d="M7.61902 10.9762V12.8809C7.61902 13.4067 8.04569 13.8333 8.5714 13.8333C9.09712 13.8333 9.52378 13.4067 9.52378 12.8809V10.9762C9.52378 10.4505 9.09712 10.0238 8.5714 10.0238C8.04569 10.0238 7.61902 10.4505 7.61902 10.9762Z" fill="#EEFF04"/>
<path fill-rule="evenodd" clip-rule="evenodd" d="M7.61902 16.6904V22.4047C7.61902 22.9304 8.04569 23.357 8.5714 23.357C9.09712 23.357 9.52378 22.9304 9.52378 22.4047V16.6904C9.52378 16.1647 9.09712 15.738 8.5714 15.738C8.04569 15.738 7.61902 16.1647 7.61902 16.6904Z" fill="#EEFF04"/>
<path fill-rule="evenodd" clip-rule="evenodd" d="M30.4762 10.9762V22.4048C30.4762 22.9305 30.9029 23.3571 31.4286 23.3571C31.9543 23.3571 32.381 22.9305 32.381 22.4048V10.9762C32.381 10.4505 31.9543 10.0238 31.4286 10.0238C30.9029 10.0238 30.4762 10.4505 30.4762 10.9762Z" fill="#EEFF04"/>
<path fill-rule="evenodd" clip-rule="evenodd" d="M3.80957 12.881V20.5C3.80957 21.0257 4.23624 21.4524 4.76195 21.4524C5.28767 21.4524 5.71434 21.0257 5.71434 20.5V12.881C5.71434 12.3553 5.28767 11.9286 4.76195 11.9286C4.23624 11.9286 3.80957 12.3553 3.80957 12.881Z" fill="#EEFF04"/>
<path fill-rule="evenodd" clip-rule="evenodd" d="M34.2858 12.881V20.5C34.2858 21.0257 34.7125 21.4524 35.2382 21.4524C35.7639 21.4524 36.1906 21.0257 36.1906 20.5V12.881C36.1906 12.3553 35.7639 11.9286 35.2382 11.9286C34.7125 11.9286 34.2858 12.3553 34.2858 12.881Z" fill="#EEFF04"/>
<path fill-rule="evenodd" clip-rule="evenodd" d="M0 14.7858V18.5953C0 19.121 0.426667 19.5477 0.952383 19.5477C1.4781 19.5477 1.90477 19.121 1.90477 18.5953V14.7858C1.90477 14.2601 1.4781 13.8334 0.952383 13.8334C0.426667 13.8334 0 14.2601 0 14.7858Z" fill="#EEFF04"/>
<path fill-rule="evenodd" clip-rule="evenodd" d="M38.0954 14.7858V18.5953C38.0954 19.121 38.522 19.5477 39.0477 19.5477C39.5735 19.5477 40.0001 19.121 40.0001 18.5953V14.7858C40.0001 14.2601 39.5735 13.8334 39.0477 13.8334C38.522 13.8334 38.0954 14.2601 38.0954 14.7858Z" fill="#EEFF04"/>
<path fill-rule="evenodd" clip-rule="evenodd" d="M14.2858 40.5H25.7143C26.2401 40.5 26.6667 40.0734 26.6667 39.5477C26.6667 39.0219 26.2401 38.5953 25.7143 38.5953H14.2858C13.76 38.5953 13.3334 39.0219 13.3334 39.5477C13.3334 40.0734 13.76 40.5 14.2858 40.5Z" fill="#EEFF04"/>
<path fill-rule="evenodd" clip-rule="evenodd" d="M20 36.6906C23.2838 36.6906 26.4324 35.3858 28.7543 33.0639C30.5848 31.2344 31.7819 28.8915 32.2077 26.3734C32.2953 25.8544 31.9457 25.363 31.4277 25.2753C30.9096 25.1877 30.4172 25.5372 30.3296 26.0553C29.9696 28.1868 28.9562 30.1696 27.4077 31.7172C25.4429 33.682 22.7781 34.7858 20 34.7858C17.2219 34.7858 14.5571 33.682 12.5924 31.7172C11.0438 30.1696 10.0305 28.1868 9.67047 26.0553C9.58285 25.5372 9.09048 25.1877 8.57239 25.2753C8.05429 25.363 7.70477 25.8544 7.79239 26.3734C8.2181 28.8915 9.41525 31.2344 11.2457 33.0639C13.5676 35.3858 16.7162 36.6906 20 36.6906Z" fill="#EEFF04"/>
<path d="M56.252 21.377H49.7305V17.2637H56.252C57.2598 17.2637 58.0801 17.0996 58.7129 16.7715C59.3457 16.4316 59.8086 15.9629 60.1016 15.3652C60.3945 14.7676 60.541 14.0938 60.541 13.3438C60.541 12.582 60.3945 11.873 60.1016 11.2168C59.8086 10.5605 59.3457 10.0332 58.7129 9.63477C58.0801 9.23633 57.2598 9.03711 56.252 9.03711H51.5586V30.5H46.2852V4.90625H56.252C58.2559 4.90625 59.9727 5.26953 61.4023 5.99609C62.8438 6.71094 63.9453 7.70117 64.707 8.9668C65.4688 10.2324 65.8496 11.6797 65.8496 13.3086C65.8496 14.9609 65.4688 16.3906 64.707 17.5977C63.9453 18.8047 62.8438 19.7363 61.4023 20.3926C59.9727 21.0488 58.2559 21.377 56.252 21.377ZM79.2266 26.2109V17.7383C79.2266 16.8359 78.998 16.1152 78.541 15.5762C78.0957 15.0371 77.3809 14.7676 76.3965 14.7676C75.834 14.7676 75.3477 14.8672 74.9375 15.0664C74.5273 15.2539 74.2109 15.5293 73.9883 15.8926C73.7656 16.2441 73.6543 16.6602 73.6543 17.1406H68.5918C68.5918 16.0508 68.9199 15.0547 69.5762 14.1523C70.2441 13.2383 71.1816 12.5059 72.3887 11.9551C73.6074 11.4043 75.0371 11.1289 76.6777 11.1289C78.1543 11.1289 79.4668 11.375 80.6152 11.8672C81.7637 12.3594 82.666 13.0977 83.3223 14.082C83.9902 15.0664 84.3242 16.2969 84.3242 17.7734V25.9121C84.3242 26.9551 84.3887 27.8105 84.5176 28.4785C84.6465 29.1348 84.834 29.709 85.0801 30.2012V30.5H79.9648C79.7188 29.9844 79.5312 29.3398 79.4023 28.5664C79.2852 27.7812 79.2266 26.9961 79.2266 26.2109ZM79.8945 18.916L79.9297 21.7812H77.0996C75.752 21.7812 74.7676 22.0684 74.1465 22.6426C73.5371 23.2051 73.2324 23.9258 73.2324 24.8047C73.2324 25.4609 73.4551 26.0059 73.9004 26.4395C74.3457 26.8613 74.9492 27.0723 75.7109 27.0723C76.4727 27.0723 77.1348 26.9199 77.6973 26.6152C78.2598 26.3105 78.6934 25.9355 78.998 25.4902C79.3145 25.0449 79.4785 24.623 79.4902 24.2246L80.8262 26.3691C80.6387 26.8496 80.3809 27.3477 80.0527 27.8633C79.7363 28.3789 79.332 28.8652 78.8398 29.3223C78.3477 29.7676 77.7559 30.1367 77.0645 30.4297C76.373 30.7109 75.5527 30.8516 74.6035 30.8516C73.3965 30.8516 72.3008 30.6113 71.3164 30.1309C70.3438 29.6387 69.5703 28.9648 68.9961 28.1094C68.4336 27.2422 68.1523 26.2578 68.1523 25.1562C68.1523 23.1758 68.8906 21.6406 70.3672 20.5508C71.8438 19.4609 74.041 18.916 76.959 18.916H79.8945ZM93.2891 15.6289V30.5H88.2266V11.4805H92.9902L93.2891 15.6289ZM99.0195 11.3574L98.9316 16.0508C98.6855 16.0156 98.3867 15.9863 98.0352 15.9629C97.6953 15.9277 97.3848 15.9102 97.1035 15.9102C96.1543 15.9102 95.3691 16.0742 94.748 16.4023C94.1387 16.7188 93.6816 17.1816 93.377 17.791C93.0723 18.3887 92.9082 19.1211 92.8848 19.9883L91.8652 19.6719C91.8652 18.0312 92.082 16.5664 92.5156 15.2773C92.9492 13.9883 93.5762 12.9746 94.3965 12.2363C95.2285 11.498 96.2422 11.1289 97.4375 11.1289C97.7188 11.1289 98.0059 11.1523 98.2988 11.1992C98.5918 11.2344 98.832 11.2871 99.0195 11.3574ZM106.754 3.5V30.5H101.674V3.5H106.754ZM119.691 30.8516C117.723 30.8516 116.029 30.4414 114.611 29.6211C113.193 28.7891 112.104 27.6758 111.342 26.2812C110.592 24.8867 110.217 23.3398 110.217 21.6406V20.9375C110.217 19.0156 110.574 17.3223 111.289 15.8574C112.004 14.3809 113.029 13.2266 114.365 12.3945C115.701 11.5508 117.289 11.1289 119.129 11.1289C120.934 11.1289 122.457 11.5215 123.699 12.3066C124.941 13.0801 125.885 14.1641 126.529 15.5586C127.174 16.9531 127.496 18.582 127.496 20.4453V22.5547H112.379V19.1797H122.521V18.793C122.521 18.0898 122.393 17.4629 122.135 16.9121C121.889 16.3496 121.514 15.9043 121.01 15.5762C120.506 15.248 119.861 15.084 119.076 15.084C118.186 15.084 117.459 15.3359 116.896 15.8398C116.334 16.3438 115.924 17.041 115.666 17.9316C115.42 18.8105 115.297 19.8125 115.297 20.9375V21.6406C115.297 22.6602 115.484 23.5684 115.859 24.3652C116.234 25.1504 116.773 25.7715 117.477 26.2285C118.18 26.6738 119.023 26.8965 120.008 26.8965C120.922 26.8965 121.771 26.7207 122.557 26.3691C123.354 26.0059 124.039 25.4609 124.613 24.7344L127.074 27.4062C126.477 28.2734 125.557 29.0645 124.314 29.7793C123.072 30.4941 121.531 30.8516 119.691 30.8516ZM135.775 28.3555L140.82 11.4805H146.252L138.605 33.3652C138.441 33.8457 138.219 34.3613 137.938 34.9121C137.668 35.4629 137.299 35.9844 136.83 36.4766C136.373 36.9805 135.793 37.3906 135.09 37.707C134.398 38.0234 133.549 38.1816 132.541 38.1816C132.061 38.1816 131.668 38.1523 131.363 38.0938C131.059 38.0352 130.695 37.9531 130.273 37.8477V34.1387C130.402 34.1387 130.537 34.1387 130.678 34.1387C130.818 34.1504 130.953 34.1562 131.082 34.1562C132.078 34.1562 132.811 33.9863 133.279 33.6465C133.748 33.3184 134.105 32.7793 134.352 32.0293L135.775 28.3555ZM133.666 11.4805L137.797 25.2617L138.518 30.623L135.072 30.9922L128.234 11.4805H133.666ZM146.709 27.5469C146.709 26.7148 147.008 26.0176 147.605 25.4551C148.215 24.8926 148.941 24.6113 149.785 24.6113C150.629 24.6113 151.344 24.8926 151.93 25.4551C152.527 26.0176 152.826 26.7148 152.826 27.5469C152.826 28.3906 152.527 29.0938 151.93 29.6562C151.344 30.2188 150.629 30.5 149.785 30.5C148.918 30.5 148.186 30.2188 147.588 29.6562C147.002 29.0938 146.709 28.3906 146.709 27.5469Z" fill="white"/>
</svg>
