<svg width="177" height="40" viewBox="0 0 177 40" fill="none" xmlns="http://www.w3.org/2000/svg">
<g clip-path="url(#clip0_222_331)">
<g clip-path="url(#clip1_222_331)">
<circle cx="20" cy="4" r="4" fill="#3982D6"/>
<circle cx="36" cy="4" r="4" fill="#FDBF3E"/>
<circle cx="4" cy="20" r="4" fill="#36D473"/>
<circle cx="20.5" cy="19.5" r="7.5" fill="#FC5647"/>
<circle cx="36" cy="20" r="4" fill="white"/>
<circle cx="4" cy="36" r="4" fill="#3765A7"/>
<circle cx="20" cy="36" r="4" fill="#CF941D"/>
</g>
<path d="M54.4072 21.7617C54.2725 21.7383 54.2051 21.6768 54.2051 21.5771L54.2402 20.0127C54.2402 19.8955 54.3164 19.8311 54.4688 19.8193L58.749 19.5381C58.9658 19.5498 59.0801 19.6729 59.0918 19.9072L59.0479 21.4189C59.0479 21.4834 59.0303 21.5332 58.9951 21.5684C58.96 21.6035 58.9248 21.6211 58.8896 21.6211L58.4326 21.6387L58.5908 26.8682C58.5791 27.0322 58.5029 27.1143 58.3623 27.1143C58.0342 27.1143 57.4805 26.9121 56.7012 26.5078C55.9102 26.9648 55.0547 27.1934 54.1348 27.1934C53.2207 27.1934 52.4414 27.0586 51.7969 26.7891C51.1523 26.5137 50.6133 26.0859 50.1797 25.5059C49.2891 24.334 48.8438 22.5176 48.8438 20.0566C48.8438 16.623 49.8105 14.543 51.7441 13.8164C52.3594 13.582 53.0479 13.4648 53.8096 13.4648C54.8994 13.4648 55.793 13.749 56.4902 14.3174L56.666 13.2539C56.6836 13.1074 56.748 13.0312 56.8594 13.0254L58.2393 12.9023C58.3799 12.9023 58.4502 12.9697 58.4502 13.1045L58.5469 16.3213C58.5469 16.4326 58.4883 16.4971 58.3711 16.5146L56.7012 16.7432C56.3438 16.2686 56.0273 15.9463 55.752 15.7764C55.2598 15.4717 54.7529 15.3193 54.2314 15.3193C53.71 15.3193 53.2324 15.3926 52.7988 15.5391C52.3711 15.6855 52.0049 15.9404 51.7002 16.3037C51.0615 17.0654 50.7422 18.3281 50.7422 20.0918C50.7422 22.9336 51.457 24.5947 52.8867 25.0752C53.3379 25.2275 53.8887 25.3037 54.5391 25.3037C55.1895 25.3037 55.8721 25.1748 56.5869 24.917L56.543 21.7002L54.4072 21.7617ZM61.3242 27.123C61.2422 27.123 61.2012 27.0527 61.2012 26.9121V25.585C61.2012 25.4736 61.248 25.418 61.3418 25.418H62.3965L62.4668 19.2744L61.043 19.125C60.9375 19.1133 60.8848 19.0488 60.8848 18.9316L61.0781 17.4814C61.1016 17.376 61.1719 17.3145 61.2891 17.2969L64.1104 17.0068C64.1748 17.0068 64.2158 17.0244 64.2334 17.0596C64.251 17.0889 64.2627 17.1387 64.2686 17.209L64.3828 18.8086L64.3564 25.418H65.3584C65.4521 25.418 65.499 25.4736 65.499 25.585L65.3408 26.7363C65.3291 26.8066 65.3086 26.8535 65.2793 26.877C65.2559 26.8945 65.2061 26.9062 65.1299 26.9121L61.3242 27.123ZM64.0576 15.0293C63.9463 15.1172 63.7969 15.1758 63.6094 15.2051C63.4219 15.2344 63.1963 15.249 62.9326 15.249C62.6748 15.249 62.4756 15.2344 62.335 15.2051C62.2002 15.1758 62.0918 15.123 62.0098 15.0469C61.875 14.9062 61.8076 14.6572 61.8076 14.2998C61.8076 13.9424 61.8252 13.6875 61.8604 13.5352C61.9014 13.377 61.9746 13.2539 62.0801 13.166C62.2617 13.0137 62.5576 12.9375 62.9678 12.9375C63.3838 12.9375 63.6621 12.9492 63.8027 12.9727C63.9434 12.9902 64.0547 13.0371 64.1367 13.1133C64.2773 13.2363 64.3477 13.4824 64.3477 13.8516C64.3477 14.2207 64.3271 14.4873 64.2861 14.6514C64.2451 14.8154 64.1689 14.9414 64.0576 15.0293ZM75.6504 16.9717C75.8086 16.9717 75.8936 17.0771 75.9053 17.2881L75.791 18.668C75.7793 18.791 75.7119 18.8525 75.5889 18.8525L74.0068 18.5449C74.6338 19.2129 74.9473 19.8164 74.9473 20.3555C74.9473 20.8945 74.874 21.3838 74.7275 21.8232C74.5869 22.2568 74.3555 22.623 74.0332 22.9219C73.3828 23.5312 72.3604 23.8359 70.9658 23.8359C70.415 23.8359 69.917 23.7773 69.4717 23.6602C69.3311 23.9824 69.2607 24.2461 69.2607 24.4512C69.2607 24.6562 69.2754 24.8027 69.3047 24.8906C69.334 24.9785 69.3926 25.0488 69.4805 25.1016C69.6387 25.2012 69.8789 25.251 70.2012 25.251C70.5293 25.251 70.8369 25.2422 71.124 25.2246C71.8682 25.1895 72.4629 25.1719 72.9082 25.1719C73.3594 25.1719 73.7637 25.2451 74.1211 25.3916C74.4844 25.5381 74.7773 25.7344 75 25.9805C75.4336 26.4609 75.6504 27.0967 75.6504 27.8877C75.6504 28.8545 75.2666 29.6426 74.499 30.252C73.6553 30.9258 72.4717 31.2627 70.9482 31.2627C69.6768 31.2627 68.7451 31.1016 68.1533 30.7793C67.4912 30.416 67.1602 29.8564 67.1602 29.1006C67.1602 28.3447 67.4971 27.5273 68.1709 26.6484C67.7021 26.3848 67.4678 25.96 67.4678 25.374C67.4678 24.7822 67.8076 24.0762 68.4873 23.2559C67.5381 22.7051 67.0635 21.7588 67.0635 20.417C67.0635 19.2393 67.4531 18.3398 68.2324 17.7188C68.9297 17.1621 69.8877 16.8838 71.1064 16.8838C71.7393 16.8838 72.3193 16.8926 72.8467 16.9102C74.0771 16.9512 75.0117 16.9717 75.6504 16.9717ZM73.0664 21.0498C73.1309 20.8154 73.1631 20.5635 73.1631 20.2939C73.1631 20.0244 73.1221 19.7754 73.04 19.5469C72.9639 19.3125 72.8438 19.1133 72.6797 18.9492C72.3281 18.5977 71.8213 18.4219 71.1592 18.4219C70.1045 18.4219 69.416 18.7793 69.0938 19.4941C68.9824 19.752 68.9268 20.0654 68.9268 20.4346C68.9268 21.6357 69.6709 22.2363 71.1592 22.2363C72.2021 22.2363 72.8379 21.8408 73.0664 21.0498ZM72.2842 26.9121L69.876 26.9824C69.6416 26.9824 69.4336 26.9736 69.252 26.9561C69.0586 27.4307 68.9619 27.8965 68.9619 28.3535C68.9619 28.8105 69.1406 29.127 69.498 29.3027C69.8555 29.4844 70.3389 29.5752 70.9482 29.5752C71.5576 29.5752 72.0293 29.5371 72.3633 29.4609C72.6973 29.3906 72.9785 29.291 73.207 29.1621C73.6641 28.8926 73.8926 28.541 73.8926 28.1074C73.8926 27.7383 73.8164 27.4805 73.6641 27.334C73.377 27.0527 72.917 26.9121 72.2842 26.9121ZM86.1621 16.9717C86.3203 16.9717 86.4053 17.0771 86.417 17.2881L86.3027 18.668C86.291 18.791 86.2236 18.8525 86.1006 18.8525L84.5186 18.5449C85.1455 19.2129 85.459 19.8164 85.459 20.3555C85.459 20.8945 85.3857 21.3838 85.2393 21.8232C85.0986 22.2568 84.8672 22.623 84.5449 22.9219C83.8945 23.5312 82.8721 23.8359 81.4775 23.8359C80.9268 23.8359 80.4287 23.7773 79.9834 23.6602C79.8428 23.9824 79.7725 24.2461 79.7725 24.4512C79.7725 24.6562 79.7871 24.8027 79.8164 24.8906C79.8457 24.9785 79.9043 25.0488 79.9922 25.1016C80.1504 25.2012 80.3906 25.251 80.7129 25.251C81.041 25.251 81.3486 25.2422 81.6357 25.2246C82.3799 25.1895 82.9746 25.1719 83.4199 25.1719C83.8711 25.1719 84.2754 25.2451 84.6328 25.3916C84.9961 25.5381 85.2891 25.7344 85.5117 25.9805C85.9453 26.4609 86.1621 27.0967 86.1621 27.8877C86.1621 28.8545 85.7783 29.6426 85.0107 30.252C84.167 30.9258 82.9834 31.2627 81.46 31.2627C80.1885 31.2627 79.2568 31.1016 78.665 30.7793C78.0029 30.416 77.6719 29.8564 77.6719 29.1006C77.6719 28.3447 78.0088 27.5273 78.6826 26.6484C78.2139 26.3848 77.9795 25.96 77.9795 25.374C77.9795 24.7822 78.3193 24.0762 78.999 23.2559C78.0498 22.7051 77.5752 21.7588 77.5752 20.417C77.5752 19.2393 77.9648 18.3398 78.7441 17.7188C79.4414 17.1621 80.3994 16.8838 81.6182 16.8838C82.251 16.8838 82.8311 16.8926 83.3584 16.9102C84.5889 16.9512 85.5234 16.9717 86.1621 16.9717ZM83.5781 21.0498C83.6426 20.8154 83.6748 20.5635 83.6748 20.2939C83.6748 20.0244 83.6338 19.7754 83.5518 19.5469C83.4756 19.3125 83.3555 19.1133 83.1914 18.9492C82.8398 18.5977 82.333 18.4219 81.6709 18.4219C80.6162 18.4219 79.9277 18.7793 79.6055 19.4941C79.4941 19.752 79.4385 20.0654 79.4385 20.4346C79.4385 21.6357 80.1826 22.2363 81.6709 22.2363C82.7139 22.2363 83.3496 21.8408 83.5781 21.0498ZM82.7959 26.9121L80.3877 26.9824C80.1533 26.9824 79.9453 26.9736 79.7637 26.9561C79.5703 27.4307 79.4736 27.8965 79.4736 28.3535C79.4736 28.8105 79.6523 29.127 80.0098 29.3027C80.3672 29.4844 80.8506 29.5752 81.46 29.5752C82.0693 29.5752 82.541 29.5371 82.875 29.4609C83.209 29.3906 83.4902 29.291 83.7188 29.1621C84.1758 28.8926 84.4043 28.541 84.4043 28.1074C84.4043 27.7383 84.3281 27.4805 84.1758 27.334C83.8887 27.0527 83.4287 26.9121 82.7959 26.9121ZM88.1484 15.082C88.043 15.082 87.9902 15.0176 87.9902 14.8887L88.043 13.166C88.043 13.0957 88.0605 13.0518 88.0957 13.0342C88.1309 13.0107 88.1836 12.9932 88.2539 12.9814L91.1104 13.0518C91.1748 13.0518 91.2158 13.0693 91.2334 13.1045C91.251 13.1338 91.2627 13.1836 91.2686 13.2539L91.207 14.6514L91.3389 25.1631L92.5342 25.0664C92.6162 25.0664 92.6631 25.1221 92.6748 25.2334L92.7803 26.8242C92.7686 26.8945 92.748 26.9414 92.7188 26.9648C92.6953 26.9824 92.6455 26.9941 92.5693 27L87.7969 26.9473C87.7148 26.9473 87.6738 26.877 87.6738 26.7363V25.2334C87.6738 25.1221 87.7207 25.0664 87.8145 25.0664L89.4756 25.1719V14.9766L88.1484 15.082ZM100.497 26.9473C99.7471 27.1348 98.7949 27.2285 97.6406 27.2285C96.4629 27.2285 95.6074 26.8652 95.0742 26.1387C94.5176 25.3828 94.2393 24.1846 94.2393 22.5439C94.2393 20.8213 94.4766 19.5352 94.9512 18.6855C95.4902 17.748 96.3516 17.1768 97.5352 16.9717C97.9453 16.9014 98.4023 16.8662 98.9062 16.8662C99.9902 16.8662 100.778 17.1328 101.271 17.666C101.763 18.1992 102.009 19.0137 102.009 20.1094C102.009 20.8242 101.883 21.375 101.631 21.7617C101.549 21.8848 101.438 22.0254 101.297 22.1836C101.156 22.3359 100.896 22.4736 100.515 22.5967C100.14 22.7139 99.709 22.8047 99.2227 22.8691C98.4668 22.9629 97.4268 23.0098 96.1025 23.0098C96.1787 24 96.4219 24.6738 96.832 25.0312C97.1426 25.3125 97.6816 25.4531 98.4492 25.4531C99.1699 25.4531 99.8877 25.3916 100.603 25.2686L100.629 24.8115C100.635 24.7412 100.649 24.6943 100.673 24.6709C100.702 24.6475 100.752 24.627 100.822 24.6094L102.088 24.3281C102.217 24.3281 102.29 24.3838 102.308 24.4951C102.325 24.5947 102.343 24.791 102.36 25.084C102.378 25.3711 102.396 25.6201 102.413 25.8311C102.431 26.042 102.445 26.2441 102.457 26.4375L102.492 26.9297C102.498 27.0762 102.501 27.1992 102.501 27.2988C102.501 27.4746 102.372 27.5771 102.114 27.6064L100.655 27.7822C100.526 27.7822 100.462 27.7178 100.462 27.5889L100.497 26.9473ZM99.6797 21.1904C99.832 21.0557 99.9229 20.9004 99.9521 20.7246C99.9873 20.543 100.005 20.332 100.005 20.0918C100.005 19.8457 99.9814 19.6289 99.9346 19.4414C99.8936 19.2539 99.8203 19.0928 99.7148 18.958C99.4863 18.6768 99.1143 18.5361 98.5986 18.5361C97.6025 18.5361 96.9375 18.7881 96.6035 19.292C96.2871 19.7607 96.1113 20.5693 96.0762 21.7178C98.1211 21.6885 99.3223 21.5127 99.6797 21.1904ZM109.805 31.0254C109.676 31.0254 109.611 30.9551 109.611 30.8145L109.717 29.3643C109.723 29.2881 109.74 29.2383 109.77 29.2148C109.799 29.1973 109.846 29.1855 109.91 29.1797L110.517 29.2588V18.9053L109.075 19.0283C108.958 19.0283 108.899 18.9727 108.899 18.8613L108.882 17.0596C108.899 16.96 108.967 16.9014 109.084 16.8838L111.527 16.9717C111.633 16.9717 111.688 17.0361 111.694 17.165L111.747 17.7363C112.784 17.1738 113.698 16.8926 114.489 16.8926C115.286 16.8926 115.922 16.998 116.396 17.209C116.877 17.4199 117.264 17.7393 117.557 18.167C118.084 18.9463 118.348 20.2354 118.348 22.0342C118.348 24.5713 117.677 26.127 116.335 26.7012C115.884 26.8945 115.283 26.9912 114.533 26.9912C113.789 26.9912 113.016 26.8447 112.213 26.5518L112.336 29.3467L113.988 29.2852C114.111 29.2969 114.173 29.3584 114.173 29.4697L114.085 30.7617C114.073 30.8789 114.006 30.9375 113.883 30.9375L109.805 31.0254ZM112.151 24.873C112.884 25.0488 113.514 25.1367 114.041 25.1367C114.574 25.1367 114.979 25.0957 115.254 25.0137C115.535 24.9316 115.764 24.7764 115.939 24.5479C116.279 24.1084 116.449 23.2676 116.449 22.0254C116.449 20.7949 116.314 19.957 116.045 19.5117C115.752 19.0312 115.192 18.791 114.366 18.791C113.804 18.791 113.13 18.917 112.345 19.1689L112.151 24.873ZM120.325 22.0605C120.325 21.0586 120.407 20.2266 120.571 19.5645C120.741 18.8965 120.99 18.3633 121.318 17.9648C121.928 17.2441 122.921 16.8838 124.298 16.8838C125.259 16.8838 125.959 16.9805 126.398 17.1738C126.844 17.3672 127.192 17.5869 127.444 17.833C127.702 18.0791 127.922 18.3955 128.104 18.7822C128.467 19.5732 128.648 20.5693 128.648 21.7705C128.648 22.9658 128.563 23.8887 128.394 24.5391C128.229 25.1895 127.98 25.7109 127.646 26.1035C127.025 26.8184 126.021 27.1758 124.632 27.1758C123.179 27.1758 122.121 26.8242 121.459 26.1211C120.703 25.3242 120.325 23.9707 120.325 22.0605ZM126.311 24.7939C126.486 24.5596 126.618 24.2314 126.706 23.8096C126.794 23.3877 126.838 22.8721 126.838 22.2627C126.838 21.6533 126.806 21.1611 126.741 20.7861C126.677 20.4111 126.586 20.1006 126.469 19.8545C126.357 19.6025 126.223 19.4062 126.064 19.2656C125.906 19.1191 125.733 19.0107 125.546 18.9404C125.265 18.835 124.893 18.7822 124.43 18.7822C123.967 18.7822 123.598 18.8174 123.322 18.8877C123.047 18.958 122.818 19.1074 122.637 19.3359C122.291 19.7812 122.118 20.6777 122.118 22.0254C122.118 23.9414 122.634 25.0225 123.665 25.2686C123.981 25.3447 124.324 25.3828 124.693 25.3828C125.062 25.3828 125.379 25.3447 125.643 25.2686C125.912 25.1865 126.135 25.0283 126.311 24.7939ZM135.521 14.5635C135.404 14.5635 135.346 14.4932 135.346 14.3525L135.434 12.9463C135.445 12.8291 135.513 12.7705 135.636 12.7705L138.65 12.9375C138.756 12.9492 138.809 13.0166 138.809 13.1396V25.4795L139.731 25.3828C139.849 25.3828 139.907 25.4385 139.907 25.5498L139.749 26.9121C139.731 27.0117 139.664 27.0703 139.547 27.0879L137.367 27.4395C137.256 27.4395 137.2 27.375 137.2 27.2461L137.271 26.376C136.286 26.7803 135.404 26.9824 134.625 26.9824C133.852 26.9824 133.228 26.877 132.753 26.666C132.278 26.4551 131.895 26.1387 131.602 25.7168C131.074 24.9375 130.811 23.6484 130.811 21.8496C130.811 19.248 131.481 17.6777 132.823 17.1387C133.274 16.957 133.887 16.8662 134.66 16.8662C135.434 16.8662 136.251 17.0303 137.112 17.3584L136.998 14.5898L135.521 14.5635ZM137.165 19.1426C136.327 18.9375 135.642 18.835 135.108 18.835C134.581 18.835 134.177 18.876 133.896 18.958C133.62 19.04 133.395 19.1953 133.219 19.4238C132.879 19.8633 132.709 20.7041 132.709 21.9463C132.709 23.1826 132.844 24.0205 133.113 24.46C133.406 24.9346 133.966 25.1719 134.792 25.1719C135.472 25.1719 136.201 25.0576 136.98 24.8291L137.165 19.1426ZM142.157 17.7363C142.409 17.4668 142.726 17.2559 143.106 17.1035C143.487 16.9453 143.953 16.8662 144.504 16.8662C145.061 16.8662 145.679 16.9512 146.358 17.1211L148.011 16.8135C148.116 16.8311 148.175 16.8955 148.187 17.0068L148.336 20.1357C148.324 20.2764 148.26 20.3555 148.143 20.373L146.675 20.5664C146.552 20.5664 146.49 20.502 146.49 20.373V18.8877C146.115 18.7998 145.714 18.7559 145.286 18.7559C144.858 18.7559 144.48 18.8262 144.152 18.9668C143.83 19.1074 143.578 19.3184 143.396 19.5996C143.08 20.0918 142.922 20.9385 142.922 22.1396C142.922 23.9443 143.291 24.9727 144.029 25.2246C144.264 25.3066 144.533 25.3477 144.838 25.3477C145.277 25.3477 145.781 25.292 146.35 25.1807L146.385 24.5742C146.396 24.4336 146.458 24.3574 146.569 24.3457L147.958 24.3984C148.04 24.4102 148.087 24.4775 148.099 24.6006L148.257 27.3516C148.257 27.4746 148.198 27.5361 148.081 27.5361H146.394C146.306 27.5361 146.256 27.4805 146.244 27.3691L146.271 26.8682C144.149 27.2842 142.693 26.9883 141.902 25.9805C141.34 25.2539 141.059 24.0791 141.059 22.4561C141.059 21.3721 141.105 20.5635 141.199 20.0303C141.293 19.4971 141.413 19.0488 141.56 18.6855C141.706 18.3223 141.905 18.0059 142.157 17.7363ZM155.578 16.8838C157.312 16.8838 158.18 17.9619 158.18 20.1182C158.18 20.6279 158.168 21.2871 158.145 22.0957L158.083 23.8184C158.071 24.1641 158.057 24.4922 158.039 24.8027L158.004 25.6377L158.531 25.5938C158.725 25.582 158.944 25.5645 159.19 25.541C159.313 25.541 159.375 25.5967 159.375 25.708L159.217 27.0967C159.199 27.2021 159.135 27.2607 159.023 27.2725L156.483 27.4307C156.401 27.4307 156.36 27.3662 156.36 27.2373L156.483 26.209C155.505 26.9648 154.441 27.3428 153.293 27.3428C152.396 27.3428 151.658 27.082 151.078 26.5605C150.463 26.0098 150.155 25.2686 150.155 24.3369C150.155 23.124 150.574 22.2715 151.412 21.7793C152.15 21.3457 153.366 21.1289 155.06 21.1289C155.411 21.1289 155.786 21.1377 156.185 21.1553C156.19 21.0029 156.193 20.8623 156.193 20.7334V20.3994C156.193 19.2568 155.692 18.6855 154.69 18.6855C154.169 18.6855 153.524 18.8438 152.757 19.1602L152.792 19.4941C152.804 19.6055 152.81 19.6934 152.81 19.7578C152.81 19.8867 152.745 19.9512 152.616 19.9512L151.131 19.9775C151.025 19.96 150.967 19.8955 150.955 19.7842L150.806 17.2705C150.806 17.1299 150.87 17.0508 150.999 17.0332L152.467 16.8398C152.59 16.8398 152.651 16.9043 152.651 17.0332V17.7627C153.7 17.1768 154.676 16.8838 155.578 16.8838ZM153.908 25.6816C154.582 25.6816 155.323 25.4883 156.132 25.1016C156.144 24.7148 156.149 24.29 156.149 23.8271C156.155 23.3584 156.164 22.8955 156.176 22.4385C154.635 22.4385 153.565 22.5703 152.968 22.834C152.417 23.0801 152.142 23.4902 152.142 24.0645C152.142 25.1426 152.73 25.6816 153.908 25.6816ZM167.417 19.5029C165.835 18.9639 164.719 18.6943 164.068 18.6943C163.365 18.6943 162.891 18.8672 162.645 19.2129C162.545 19.3477 162.495 19.5146 162.495 19.7139C162.495 19.9131 162.519 20.0859 162.565 20.2324C162.612 20.3789 162.697 20.5078 162.82 20.6191C163.066 20.8535 163.541 21.0264 164.244 21.1377C164.947 21.249 165.56 21.3721 166.081 21.5068C166.608 21.6357 167.03 21.8057 167.347 22.0166C167.669 22.2217 167.897 22.4824 168.032 22.7988C168.173 23.1152 168.243 23.5225 168.243 24.0205C168.243 24.5127 168.17 24.9492 168.023 25.3301C167.877 25.7109 167.669 26.0332 167.399 26.2969C166.854 26.8184 166.099 27.0791 165.132 27.0791C164.47 27.0791 163.708 26.9971 162.847 26.833L162.996 27.5625C162.996 27.6562 162.929 27.709 162.794 27.7207L161.282 27.8525C161.06 27.8525 160.937 27.7383 160.913 27.5098L160.667 24.8994C160.667 24.7939 160.737 24.7295 160.878 24.7061L162.249 24.46C162.349 24.46 162.41 24.5273 162.434 24.6621L162.539 25.2422C163.389 25.377 164.089 25.4443 164.64 25.4443C165.19 25.4443 165.601 25.3301 165.87 25.1016C166.14 24.8672 166.274 24.5596 166.274 24.1787C166.274 23.8213 166.131 23.5664 165.844 23.4141C165.592 23.2734 165.097 23.1475 164.358 23.0361C163.626 22.9189 163.022 22.793 162.548 22.6582C162.073 22.5176 161.684 22.333 161.379 22.1045C160.799 21.6709 160.509 20.9355 160.509 19.8984C160.509 18.9961 160.781 18.2754 161.326 17.7363C161.906 17.168 162.718 16.8838 163.761 16.8838C164.376 16.8838 165.085 17.0889 165.888 17.499L165.721 16.8047C165.721 16.6641 165.782 16.5879 165.905 16.5762L167.646 16.4355C167.739 16.4355 167.786 16.5029 167.786 16.6377L167.593 19.3184C167.587 19.4414 167.528 19.5029 167.417 19.5029ZM174.088 26.9473C173.807 26.9648 173.391 26.9736 172.84 26.9736C172.295 26.9736 171.85 26.918 171.504 26.8066C171.164 26.6953 170.883 26.5166 170.66 26.2705C170.221 25.7842 170.001 25.002 170.001 23.9238C170.001 23.2266 170.01 22.5615 170.027 21.9287C170.051 21.29 170.068 20.7246 170.08 20.2324C170.098 19.7344 170.115 19.2422 170.133 18.7559L168.964 18.668C168.847 18.6621 168.788 18.583 168.788 18.4307L168.779 17.4199C168.779 17.291 168.844 17.2266 168.973 17.2266L170.203 17.2002C170.215 16.8955 170.227 16.6055 170.238 16.3301L170.309 15.0029C170.326 14.6924 170.35 14.5166 170.379 14.4756C170.408 14.4287 170.461 14.3994 170.537 14.3877L172.172 14.1943C172.295 14.1943 172.356 14.2588 172.356 14.3877C172.356 14.5752 172.324 15 172.26 15.6621L172.128 17.1475L175.573 17.0508C175.702 17.0508 175.767 17.1211 175.767 17.2617V18.6943C175.767 18.8115 175.702 18.873 175.573 18.8789L172.014 18.7295C171.914 20.1006 171.864 21.2959 171.864 22.3154C171.864 23.335 171.885 23.9941 171.926 24.293C171.973 24.5918 172.055 24.8232 172.172 24.9873C172.371 25.2686 172.796 25.4092 173.446 25.4092C173.634 25.4092 173.804 25.4033 173.956 25.3916C173.938 25.1865 173.93 25.0342 173.93 24.9346C173.93 24.8291 173.985 24.7676 174.097 24.75L175.564 24.5742C175.688 24.5742 175.749 24.6416 175.749 24.7764L175.784 27.0088C175.784 27.1084 175.74 27.167 175.652 27.1846L174.352 27.3955C174.217 27.3838 174.141 27.3281 174.123 27.2285L174.088 26.9473Z" fill="white"/>
</g>
<defs>
<clipPath id="clip0_222_331">
<rect width="177" height="40" fill="white"/>
</clipPath>
<clipPath id="clip1_222_331">
<rect width="40" height="40" fill="white"/>
</clipPath>
</defs>
</svg>
