<svg width="45" height="45" viewBox="0 0 45 45" fill="none" xmlns="http://www.w3.org/2000/svg">
<path d="M23.5714 45C22.8921 45 22.1983 45 21.5189 45C21.3021 44.8983 21.0853 44.9709 20.8685 44.9564C20.5216 44.9855 20.1747 44.9273 19.8278 44.9128C19.3218 44.9128 18.8304 44.8692 18.3534 44.7385C18.1366 44.6658 17.8909 44.6367 17.6741 44.5786C17.5006 44.535 17.3271 44.4769 17.1537 44.4479C16.749 44.3607 16.3298 44.2735 15.9395 44.1282C15.4625 44.041 15.0145 43.8376 14.5664 43.6487C14.2195 43.4889 13.8581 43.3871 13.5112 43.1983C13.3522 43.1111 13.1788 43.0384 13.0053 42.9803C12.615 42.7914 12.2103 42.588 11.82 42.3991C11.4876 42.2393 11.1696 42.0358 10.8516 41.8324C10.736 41.7452 10.6059 41.6871 10.4758 41.6145C9.99879 41.3093 9.55071 40.9315 9.05926 40.6555C9.00144 40.6264 8.95808 40.5828 8.91472 40.5392C8.52445 40.1469 8.04746 39.8418 7.64274 39.464C7.55601 39.3332 7.41147 39.2606 7.29583 39.1734C6.99229 38.8392 6.67429 38.5341 6.3563 38.2144C6.22621 38.0836 6.05276 37.9964 5.95158 37.8366C5.64804 37.4443 5.33004 37.0665 4.99759 36.7033C4.92532 36.6306 4.8675 36.5434 4.80968 36.4562C4.44833 35.9622 4.07251 35.4682 3.72561 34.9451C3.46543 34.5383 3.20525 34.1314 2.98844 33.6955C2.78608 33.3323 2.56926 32.969 2.39581 32.5912C2.35245 32.4895 2.30908 32.4023 2.25126 32.3006C2.0489 31.8356 1.84654 31.3852 1.64418 30.9202C1.25391 30.0194 0.921465 29.1185 0.733558 28.1595C0.675741 27.8108 0.57456 27.4766 0.487834 27.1279C0.343291 26.5321 0.227656 25.9219 0.184293 25.3116C0.184293 25.1372 0.169839 24.9774 0.126476 24.803C0.0975668 24.6577 0.0975668 24.5124 0.0975668 24.3526C0.0831125 24.0475 0.126476 23.7423 0.0397495 23.4517C-0.00361359 23.2628 -0.00361359 23.0885 0.0108408 22.8996C-0.00361359 22.4637 -0.00361359 22.0423 0.0108408 21.6064C-0.00361359 21.1269 0.112021 20.6619 0.126476 20.1824C0.198747 19.8192 0.227656 19.4414 0.271019 19.0636C0.314382 18.526 0.430017 17.9884 0.57456 17.4653C0.719104 17.0439 0.791375 16.608 0.90701 16.1866C0.921465 16.0268 0.979282 15.8815 1.0371 15.7217C1.16719 15.4165 1.25391 15.0969 1.3551 14.7917C1.49964 14.3704 1.64418 13.9635 1.84654 13.5712C2.0489 13.2225 2.15008 12.8302 2.35244 12.4669C2.42472 12.3216 2.51144 12.1763 2.56926 12.0165C2.77162 11.6096 3.00289 11.2173 3.24861 10.825C3.39316 10.5489 3.55216 10.2874 3.72561 10.0258C3.88461 9.80788 4.01469 9.5754 4.17369 9.37197C4.44833 8.93607 4.79523 8.55828 5.08432 8.13691C5.90821 7.2215 6.71766 6.27704 7.67164 5.49241C8.23536 4.98386 8.82799 4.48983 9.46398 4.05392C9.78198 3.82144 10.1 3.58896 10.4469 3.40006C10.7938 3.15305 11.1841 2.96416 11.5454 2.73168C11.6321 2.67356 11.7333 2.62996 11.82 2.58637C12.2248 2.38295 12.6295 2.19406 13.0198 1.97611C13.9737 1.52567 14.9277 1.13335 15.9395 0.857281C16.3443 0.75557 16.7345 0.653859 17.1392 0.537617C17.6018 0.392315 18.0788 0.290604 18.5558 0.232483C19.0906 0.116242 19.6398 0.116242 20.1747 0.0581208C20.4204 0.0435906 20.6661 0.0581208 20.9118 0.0435906C21.0708 0.0145302 21.2443 0.0871812 21.4033 0C22.0826 0 22.7764 0 23.4558 0C23.6437 0.0871812 23.8316 0.0290604 24.034 0.0435906C24.4098 0.0290604 24.7856 0.072651 25.1614 0.0871812C25.6673 0.0871812 26.1588 0.130772 26.6502 0.261543C27.026 0.348725 27.3874 0.435906 27.7632 0.508557C28.2402 0.624798 28.7172 0.72651 29.1797 0.900872C30.0903 1.22054 31.001 1.5402 31.8827 1.96158C32.3452 2.165 32.7788 2.41201 33.2269 2.61543C33.6895 2.86245 34.1376 3.15305 34.5856 3.41459C34.8458 3.60349 35.1349 3.77785 35.3951 3.96674C35.5685 4.1411 35.7709 4.27188 35.9733 4.40265C36.378 4.67872 36.7682 4.98386 37.1296 5.33258C38.0691 6.1608 38.9653 7.00355 39.7314 8.00613C39.8037 8.12238 39.9048 8.22409 40.006 8.3258C40.3096 8.63093 40.5264 8.99419 40.801 9.32838C40.9745 9.60446 41.1479 9.866 41.3358 10.1421C41.4659 10.3455 41.5815 10.5634 41.7261 10.7669C41.9863 11.2028 42.2464 11.6387 42.4633 12.1036C42.6656 12.5541 42.9258 12.99 43.0993 13.455C43.2582 13.8618 43.4172 14.2686 43.5907 14.6755C43.7352 15.0678 43.9231 15.4601 43.9954 15.8815C44.0099 15.9687 44.0388 16.0559 44.0677 16.143C44.2411 16.6225 44.3568 17.1311 44.458 17.6397C44.5591 18.032 44.6025 18.4533 44.6892 18.8457C44.7904 19.3833 44.8771 19.9354 44.906 20.4876C44.906 20.8799 44.8916 21.2867 44.9639 21.679C45.0217 22.0859 44.9928 22.4927 44.9928 22.9141C44.9639 23.3791 44.8771 23.8586 44.906 24.3235C44.935 24.7304 44.8771 25.1372 44.7904 25.5295C44.6892 26.009 44.6459 26.5031 44.5447 26.9826C44.4724 27.4039 44.3857 27.8253 44.2556 28.2322C44.1544 28.5082 44.0821 28.7843 44.0099 29.0749C43.9665 29.3219 43.8942 29.5544 43.7931 29.7869C43.6485 30.1501 43.504 30.5134 43.3739 30.8912C43.186 31.3997 42.9547 31.8938 42.709 32.3733C42.6801 32.4314 42.6512 32.4895 42.6223 32.5476C42.4054 32.9545 42.232 33.3758 41.9863 33.7827C41.7116 34.2477 41.4081 34.6836 41.119 35.1485C40.8588 35.5699 40.5553 35.9622 40.2807 36.3691C40.1506 36.5289 40.006 36.6597 39.9048 36.834C39.6158 37.1246 39.3845 37.4443 39.1099 37.7494C38.9509 37.8947 38.7919 38.0546 38.6473 38.2144C38.3438 38.505 38.0547 38.8101 37.7656 39.1007C37.6211 39.246 37.4765 39.3913 37.3175 39.5076C36.9417 39.8273 36.5803 40.1614 36.1756 40.452C36.0744 40.5247 35.9877 40.6119 35.8865 40.67C35.4818 40.9751 35.0626 41.2657 34.6145 41.5273C34.4122 41.6581 34.1954 41.7743 33.993 41.9051C33.7328 42.0649 33.4582 42.2247 33.1836 42.37C32.6777 42.6606 32.1573 42.8931 31.6514 43.1692C31.3045 43.3145 30.9576 43.4598 30.6107 43.576C30.1626 43.7795 29.6856 43.9102 29.2231 44.0701C28.7605 44.2154 28.298 44.3607 27.821 44.4769C27.3874 44.5786 26.9537 44.6803 26.5057 44.7385C25.9419 44.8983 25.3638 44.8692 24.7856 44.9273C24.5543 44.9273 24.3086 44.9273 24.0773 44.9273C23.8894 44.9709 23.716 44.8983 23.5714 45Z" fill="#229AF1"/>
<path d="M17.1597 15.196C18.7839 13.7857 20.8554 13.0068 23 13C27.3712 13 30.9999 16.2727 31.3947 20.4929C33.9817 20.8611 36 23.0424 36 25.7195C36 28.6584 33.5657 31 30.6164 31H16.1441C12.7755 31 10 28.3262 10 24.9749C10 22.09 12.0572 19.7009 14.7807 19.0955C15.0131 17.6833 15.915 16.276 17.1597 15.196Z" fill="white"/>
</svg>
