<svg width="138" height="40" viewBox="0 0 138 40" fill="none" xmlns="http://www.w3.org/2000/svg">
<g clip-path="url(#clip0_222_321)">
<path d="M39.3471 34.6392C38.3849 36.9759 36.323 38.7629 33.9863 39.4502C32.4742 39.8625 30.8247 40 29.1753 40H11.0309C9.38144 40 7.73196 39.8625 6.21993 39.4502C3.74571 38.7629 1.82131 36.9759 0.859107 34.6392C0.309278 32.8522 0.0343643 30.9278 0.0343643 29.0034V10.9966C-0.103093 9.07216 0.171821 7.14777 0.859107 5.36082C1.82131 3.02405 3.88316 1.23711 6.21993 0.549828C7.86942 0.137457 9.38144 0 11.0309 0H29.0378C30.6873 0 32.3368 0.137457 33.8488 0.549828C36.323 1.23711 38.2474 3.02405 39.2096 5.36082C39.8969 7.14777 40.1718 9.07216 40.0344 10.9966V29.0034C40.1718 30.9278 39.8969 32.8522 39.3471 34.6392Z" fill="url(#paint0_linear_222_321)"/>
<path d="M33.25 20C33.25 27.3178 27.3178 33.25 20 33.25C12.6822 33.25 6.75 27.3178 6.75 20C6.75 12.6822 12.6822 6.75 20 6.75C27.3178 6.75 33.25 12.6822 33.25 20Z" stroke="white" stroke-width="1.5"/>
<path d="M28.25 20C28.25 24.5563 24.5563 28.25 20 28.25C15.4437 28.25 11.75 24.5563 11.75 20C11.75 15.4437 15.4437 11.75 20 11.75C24.5563 11.75 28.25 15.4437 28.25 20Z" stroke="white" stroke-width="1.5"/>
</g>
<path d="M54.37 27.732C55.462 27.732 56.3027 27.498 56.892 27.03C57.4813 26.5447 57.776 25.8427 57.776 24.924C57.776 24.1613 57.568 23.52 57.152 23C56.7533 22.48 56.0947 22.0813 55.176 21.804L53.07 21.18C51.7527 20.7813 50.782 20.1833 50.158 19.386C49.534 18.5713 49.222 17.5747 49.222 16.396C49.222 15.4947 49.3953 14.68 49.742 13.952C50.106 13.224 50.678 12.6433 51.458 12.21C52.2553 11.7767 53.2953 11.56 54.578 11.56C55.358 11.56 56.164 11.6553 56.996 11.846C57.828 12.0193 58.6687 12.3053 59.518 12.704L58.79 14.654C57.958 14.29 57.204 14.03 56.528 13.874C55.8693 13.7007 55.2367 13.614 54.63 13.614C53.642 13.614 52.8707 13.822 52.316 14.238C51.7787 14.6367 51.51 15.304 51.51 16.24C51.51 16.916 51.692 17.488 52.056 17.956C52.42 18.4067 53.07 18.7793 54.006 19.074L56.112 19.698C58.7467 20.478 60.064 22.1593 60.064 24.742C60.064 26.2327 59.6133 27.446 58.712 28.382C57.8107 29.3007 56.3633 29.76 54.37 29.76C53.5553 29.76 52.6887 29.6647 51.77 29.474C50.8687 29.266 49.9327 28.9453 48.962 28.512L49.664 26.588C50.5827 27.004 51.406 27.2987 52.134 27.472C52.8793 27.6453 53.6247 27.732 54.37 27.732ZM69.6283 18.372C69.143 18.372 68.571 18.4933 67.9123 18.736C67.271 18.9787 66.491 19.4727 65.5723 20.218V29.5H63.4403V16.63H65.4683V18.424C66.387 17.644 67.219 17.1067 67.9643 16.812C68.727 16.5173 69.455 16.37 70.1483 16.37C71.3443 16.37 72.2543 16.7513 72.8783 17.514C73.5197 18.2593 73.8403 19.3253 73.8403 20.712V29.5H71.7083V21.024C71.7083 19.256 71.015 18.372 69.6283 18.372ZM87.7059 29.63C86.9085 29.63 86.2672 29.448 85.7819 29.084C85.3139 28.72 84.9845 28.2693 84.7939 27.732C83.9445 28.4773 83.1732 29.006 82.4799 29.318C81.7865 29.6127 81.0932 29.76 80.3999 29.76C79.2732 29.76 78.4412 29.396 77.9039 28.668C77.3665 27.94 77.0979 27.0473 77.0979 25.99C77.0979 25.2793 77.2279 24.6467 77.4879 24.092C77.7479 23.5373 78.1899 23.104 78.8139 22.792C79.4379 22.4627 80.2785 22.298 81.3359 22.298C81.8039 22.298 82.3152 22.3327 82.8699 22.402C83.4245 22.454 83.9879 22.5233 84.5599 22.61V20.868C84.5599 19.8973 84.3432 19.2387 83.9099 18.892C83.4939 18.528 82.8785 18.346 82.0639 18.346C80.9545 18.346 79.7152 18.6493 78.3459 19.256L77.6699 17.488C78.4672 17.124 79.2299 16.8467 79.9579 16.656C80.6859 16.4653 81.4225 16.37 82.1679 16.37C83.3812 16.37 84.3085 16.5693 84.9499 16.968C85.5912 17.3667 86.0332 17.8953 86.2759 18.554C86.5185 19.2127 86.6399 19.932 86.6399 20.712V26.276C86.6399 26.6747 86.7179 27.0127 86.8739 27.29C87.0299 27.55 87.3419 27.68 87.8099 27.68H88.0959V29.63H87.7059ZM79.2039 25.964C79.2039 26.5533 79.3425 27.03 79.6199 27.394C79.8972 27.758 80.2959 27.94 80.8159 27.94C81.2665 27.94 81.7865 27.81 82.3759 27.55C82.9652 27.2727 83.6932 26.7267 84.5599 25.912V24.274C83.3812 24.0833 82.3412 23.988 81.4399 23.988C80.6425 23.988 80.0705 24.1527 79.7239 24.482C79.3772 24.8113 79.2039 25.3053 79.2039 25.964ZM96.2641 29.76C95.2935 29.76 94.2881 29.5607 93.2481 29.162V35.038H91.1161V16.63H93.1441V18.45C93.9415 17.6873 94.6695 17.15 95.3281 16.838C95.9868 16.526 96.6628 16.37 97.3561 16.37C98.7255 16.37 99.7741 16.89 100.502 17.93C101.247 18.97 101.62 20.4347 101.62 22.324V23.832C101.62 25.6347 101.161 27.0733 100.242 28.148C99.3408 29.2227 98.0148 29.76 96.2641 29.76ZM96.8361 18.372C96.3335 18.372 95.8135 18.502 95.2761 18.762C94.7388 19.022 94.0628 19.5507 93.2481 20.348V27.212C93.7508 27.4373 94.2361 27.602 94.7041 27.706C95.1721 27.7927 95.6315 27.836 96.0821 27.836C97.2608 27.836 98.1101 27.4807 98.6301 26.77C99.1501 26.042 99.4101 25.0627 99.4101 23.832V22.324C99.4101 20.972 99.1935 19.9753 98.7601 19.334C98.3441 18.6927 97.7028 18.372 96.8361 18.372ZM110.711 29.76C109.741 29.76 108.735 29.5607 107.695 29.162V35.038H105.563V16.63H107.591V18.45C108.389 17.6873 109.117 17.15 109.775 16.838C110.434 16.526 111.11 16.37 111.803 16.37C113.173 16.37 114.221 16.89 114.949 17.93C115.695 18.97 116.067 20.4347 116.067 22.324V23.832C116.067 25.6347 115.608 27.0733 114.689 28.148C113.788 29.2227 112.462 29.76 110.711 29.76ZM111.283 18.372C110.781 18.372 110.261 18.502 109.723 18.762C109.186 19.022 108.51 19.5507 107.695 20.348V27.212C108.198 27.4373 108.683 27.602 109.151 27.706C109.619 27.7927 110.079 27.836 110.529 27.836C111.708 27.836 112.557 27.4807 113.077 26.77C113.597 26.042 113.857 25.0627 113.857 23.832V22.324C113.857 20.972 113.641 19.9753 113.207 19.334C112.791 18.6927 112.15 18.372 111.283 18.372ZM119.985 26.38V10.26H122.117V26.276C122.117 26.744 122.186 27.0993 122.325 27.342C122.481 27.5673 122.784 27.68 123.235 27.68H123.651V29.63H123.053C121.909 29.63 121.111 29.3267 120.661 28.72C120.21 28.1133 119.985 27.3333 119.985 26.38ZM136.2 28.746C135.42 29.1273 134.64 29.3873 133.86 29.526C133.08 29.682 132.361 29.76 131.702 29.76C129.847 29.76 128.461 29.2313 127.542 28.174C126.641 27.1167 126.19 25.6693 126.19 23.832V22.272C126.19 20.4867 126.641 19.0567 127.542 17.982C128.461 16.9073 129.752 16.37 131.416 16.37C132.3 16.37 133.106 16.552 133.834 16.916C134.579 17.2627 135.169 17.8 135.602 18.528C136.053 19.2387 136.278 20.1573 136.278 21.284C136.278 22.012 136.174 22.844 135.966 23.78H128.296V23.832C128.296 25.1493 128.565 26.146 129.102 26.822C129.657 27.498 130.541 27.836 131.754 27.836C132.309 27.836 132.915 27.7667 133.574 27.628C134.25 27.4893 134.909 27.2727 135.55 26.978L136.2 28.746ZM131.416 18.242C130.411 18.242 129.648 18.5713 129.128 19.23C128.625 19.8713 128.348 20.7813 128.296 21.96H134.12C134.172 21.648 134.198 21.3533 134.198 21.076C134.198 20.1053 133.921 19.3947 133.366 18.944C132.829 18.476 132.179 18.242 131.416 18.242Z" fill="white"/>
<defs>
<linearGradient id="paint0_linear_222_321" x1="20.0713" y1="0.613333" x2="20.0713" y2="40.0718" gradientUnits="userSpaceOnUse">
<stop stop-color="#A249E8"/>
<stop offset="1" stop-color="#9C487A"/>
</linearGradient>
<clipPath id="clip0_222_321">
<rect width="40" height="40" fill="white"/>
</clipPath>
</defs>
</svg>
