<svg width="50" height="50" viewBox="0 0 50 50" fill="none" xmlns="http://www.w3.org/2000/svg">
<circle cx="25" cy="25" r="25" fill="#5CF68A"/>
<path d="M14.812 13.3387C14.0375 13.8161 13.7946 14.8287 14.2701 15.6022C17.7568 21.2742 18.7667 29.9232 16.7297 36.6336C16.4669 37.5038 16.9573 38.423 17.8261 38.6871C18.6963 38.9492 19.6137 38.4585 19.8784 37.5898C22.2041 29.9247 21.0775 20.3959 17.074 13.8808C16.5977 13.1071 15.5847 12.8624 14.812 13.3387Z" fill="black"/>
<path d="M21.8127 12.8464C21.0382 13.3237 20.7953 14.3364 21.2708 15.1099C24.7575 20.7819 25.7674 29.4309 23.7304 36.1413C23.4676 37.0115 23.958 37.9307 24.8268 38.1948C25.697 38.4569 26.6144 37.9662 26.8791 37.0975C29.2048 29.4324 28.0782 19.9036 24.0747 13.3885C23.5984 12.6148 22.5854 12.37 21.8127 12.8464Z" fill="black"/>
<path d="M28.8134 12.3541C28.039 12.8314 27.796 13.8441 28.2716 14.6176C31.7582 20.2896 32.7681 28.9386 30.7312 35.6489C30.4683 36.5192 30.9587 37.4384 31.8275 37.7025C32.6978 37.9646 33.6152 37.4739 33.8798 36.6052C36.2056 28.9401 35.079 19.4113 31.0754 12.8962C30.5991 12.1225 29.5862 11.8777 28.8134 12.3541Z" fill="black"/>
</svg>
