<svg width="149" height="50" viewBox="0 0 149 50" fill="none" xmlns="http://www.w3.org/2000/svg">
<circle cx="25" cy="25" r="25" fill="#5CF68A"/>
<path d="M66.8184 25.9717C66.8184 25.542 66.7253 25.1732 66.5391 24.8652C66.36 24.5573 66.027 24.2744 65.54 24.0166C65.0602 23.7588 64.3656 23.4902 63.4561 23.2109C62.4678 22.9102 61.5833 22.5557 60.8027 22.1475C60.0221 21.7321 59.4062 21.2272 58.9551 20.6328C58.5111 20.0312 58.2891 19.3044 58.2891 18.4521C58.2891 17.6071 58.5218 16.8623 58.9873 16.2178C59.46 15.5732 60.1152 15.0684 60.9531 14.7031C61.791 14.3307 62.7614 14.1445 63.8643 14.1445C65.0244 14.1445 66.0234 14.3594 66.8613 14.7891C67.7064 15.2188 68.3545 15.7952 68.8057 16.5186C69.264 17.2419 69.4932 18.0404 69.4932 18.9141H66.8184C66.8184 18.3984 66.7074 17.9437 66.4854 17.5498C66.2705 17.1488 65.9411 16.8337 65.4971 16.6045C65.0602 16.3753 64.5052 16.2607 63.832 16.2607C63.1947 16.2607 62.6647 16.3574 62.2422 16.5508C61.8197 16.7441 61.5046 17.0055 61.2969 17.335C61.0892 17.6644 60.9854 18.0368 60.9854 18.4521C60.9854 18.8389 61.1071 19.1826 61.3506 19.4834C61.5941 19.7842 61.9629 20.0599 62.457 20.3105C62.9583 20.554 63.5921 20.7868 64.3584 21.0088C65.5114 21.3525 66.471 21.75 67.2373 22.2012C68.0036 22.6452 68.5765 23.1715 68.9561 23.7803C69.3356 24.389 69.5254 25.1123 69.5254 25.9502C69.5254 26.8311 69.2926 27.5902 68.8271 28.2275C68.3688 28.8649 67.7207 29.3555 66.8828 29.6992C66.0521 30.043 65.0745 30.2148 63.9502 30.2148C63.1982 30.2148 62.457 30.1146 61.7266 29.9141C61.0033 29.7135 60.3444 29.4092 59.75 29.001C59.1556 28.5856 58.6829 28.07 58.332 27.4541C57.9811 26.8311 57.8057 26.1042 57.8057 25.2734H60.502C60.502 25.7819 60.5879 26.2152 60.7598 26.5732C60.9388 26.9313 61.1859 27.2249 61.501 27.4541C61.8161 27.6761 62.1813 27.8408 62.5967 27.9482C63.0192 28.0557 63.4704 28.1094 63.9502 28.1094C64.5804 28.1094 65.1068 28.0199 65.5293 27.8408C65.959 27.6618 66.2812 27.4111 66.4961 27.0889C66.7109 26.7666 66.8184 26.3942 66.8184 25.9717ZM74.252 20.6113V34.4688H71.6631V18.377H74.0479L74.252 20.6113ZM81.8252 24.0811V24.3066C81.8252 25.431 81.6497 26.4408 81.2988 27.3359C80.9551 28.224 80.4466 28.9258 79.7734 29.4414C79.1003 29.957 78.2803 30.2148 77.3135 30.2148C76.3467 30.2148 75.541 29.9821 74.8965 29.5166C74.2591 29.0439 73.7614 28.3958 73.4033 27.5723C73.0452 26.7415 72.8018 25.7891 72.6729 24.7148V23.8447C72.8018 22.7061 73.0452 21.7142 73.4033 20.8691C73.7686 20.0169 74.2663 19.3545 74.8965 18.8818C75.5339 18.402 76.3324 18.1621 77.292 18.1621C78.2731 18.1621 79.1003 18.4092 79.7734 18.9033C80.4466 19.3975 80.9551 20.0885 81.2988 20.9766C81.6497 21.8646 81.8252 22.8994 81.8252 24.0811ZM79.2363 24.3066V24.0811C79.2363 23.3649 79.1432 22.7204 78.957 22.1475C78.778 21.5674 78.4951 21.1055 78.1084 20.7617C77.7217 20.418 77.2168 20.2461 76.5938 20.2461C76.1354 20.2461 75.7415 20.3249 75.4121 20.4824C75.0827 20.6328 74.807 20.8441 74.585 21.1162C74.363 21.3883 74.1911 21.707 74.0693 22.0723C73.9476 22.4303 73.8617 22.8206 73.8115 23.2432V25.3271C73.8975 25.8428 74.0443 26.3154 74.252 26.7451C74.4596 27.1748 74.7533 27.5186 75.1328 27.7764C75.5195 28.027 76.0137 28.1523 76.6152 28.1523C77.2383 28.1523 77.7396 27.9769 78.1191 27.626C78.5059 27.2751 78.7887 26.8096 78.9678 26.2295C79.1468 25.6423 79.2363 25.0013 79.2363 24.3066ZM83.5332 24.3174V24.0703C83.5332 22.946 83.748 21.9398 84.1777 21.0518C84.6074 20.1637 85.2233 19.4619 86.0254 18.9463C86.8275 18.4235 87.7943 18.1621 88.9258 18.1621C90.0645 18.1621 91.0348 18.4235 91.8369 18.9463C92.6462 19.4619 93.2656 20.1637 93.6953 21.0518C94.125 21.9398 94.3398 22.946 94.3398 24.0703V24.3174C94.3398 25.4346 94.125 26.4408 93.6953 27.3359C93.2656 28.224 92.6497 28.9258 91.8477 29.4414C91.0456 29.957 90.0788 30.2148 88.9473 30.2148C87.8086 30.2148 86.8346 29.957 86.0254 29.4414C85.2233 28.9258 84.6074 28.224 84.1777 27.3359C83.748 26.4408 83.5332 25.4346 83.5332 24.3174ZM86.1221 24.0703V24.3174C86.1221 25.012 86.2188 25.653 86.4121 26.2402C86.6126 26.8203 86.9206 27.2858 87.3359 27.6367C87.7513 27.9805 88.2884 28.1523 88.9473 28.1523C89.5918 28.1523 90.1217 27.9805 90.5371 27.6367C90.9525 27.2858 91.2568 26.8203 91.4502 26.2402C91.6507 25.653 91.751 25.012 91.751 24.3174V24.0703C91.751 23.3828 91.6507 22.749 91.4502 22.1689C91.2497 21.5817 90.9417 21.1126 90.5264 20.7617C90.1182 20.4036 89.5846 20.2246 88.9258 20.2246C88.2741 20.2246 87.7406 20.4036 87.3252 20.7617C86.917 21.1126 86.6126 21.5817 86.4121 22.1689C86.2188 22.749 86.1221 23.3828 86.1221 24.0703ZM101.838 18.377V20.2676H95.2852V18.377H101.838ZM97.1758 15.5303H99.7646V26.7881C99.7646 27.1462 99.8148 27.4219 99.915 27.6152C100.022 27.8014 100.169 27.9268 100.355 27.9912C100.542 28.0557 100.76 28.0879 101.011 28.0879C101.19 28.0879 101.362 28.0771 101.526 28.0557C101.691 28.0342 101.824 28.0127 101.924 27.9912L101.935 29.9678C101.72 30.0322 101.469 30.0895 101.183 30.1396C100.903 30.1898 100.581 30.2148 100.216 30.2148C99.6214 30.2148 99.0951 30.111 98.6367 29.9033C98.1784 29.6885 97.8203 29.3411 97.5625 28.8613C97.3047 28.3815 97.1758 27.7441 97.1758 26.9492V15.5303ZM106.607 18.377V30H104.008V18.377H106.607ZM103.836 15.3262C103.836 14.9323 103.965 14.6064 104.223 14.3486C104.488 14.0837 104.853 13.9512 105.318 13.9512C105.777 13.9512 106.138 14.0837 106.403 14.3486C106.668 14.6064 106.801 14.9323 106.801 15.3262C106.801 15.7129 106.668 16.0352 106.403 16.293C106.138 16.5508 105.777 16.6797 105.318 16.6797C104.853 16.6797 104.488 16.5508 104.223 16.293C103.965 16.0352 103.836 15.7129 103.836 15.3262ZM112.043 20.6113V34.4688H109.454V18.377H111.839L112.043 20.6113ZM119.616 24.0811V24.3066C119.616 25.431 119.441 26.4408 119.09 27.3359C118.746 28.224 118.238 28.9258 117.564 29.4414C116.891 29.957 116.071 30.2148 115.104 30.2148C114.138 30.2148 113.332 29.9821 112.688 29.5166C112.05 29.0439 111.552 28.3958 111.194 27.5723C110.836 26.7415 110.593 25.7891 110.464 24.7148V23.8447C110.593 22.7061 110.836 21.7142 111.194 20.8691C111.56 20.0169 112.057 19.3545 112.688 18.8818C113.325 18.402 114.123 18.1621 115.083 18.1621C116.064 18.1621 116.891 18.4092 117.564 18.9033C118.238 19.3975 118.746 20.0885 119.09 20.9766C119.441 21.8646 119.616 22.8994 119.616 24.0811ZM117.027 24.3066V24.0811C117.027 23.3649 116.934 22.7204 116.748 22.1475C116.569 21.5674 116.286 21.1055 115.899 20.7617C115.513 20.418 115.008 20.2461 114.385 20.2461C113.926 20.2461 113.533 20.3249 113.203 20.4824C112.874 20.6328 112.598 20.8441 112.376 21.1162C112.154 21.3883 111.982 21.707 111.86 22.0723C111.739 22.4303 111.653 22.8206 111.603 23.2432V25.3271C111.688 25.8428 111.835 26.3154 112.043 26.7451C112.251 27.1748 112.544 27.5186 112.924 27.7764C113.311 28.027 113.805 28.1523 114.406 28.1523C115.029 28.1523 115.531 27.9769 115.91 27.626C116.297 27.2751 116.58 26.8096 116.759 26.2295C116.938 25.6423 117.027 25.0013 117.027 24.3066ZM124.59 13.5V30H121.99V13.5H124.59ZM133.979 27.6689V22.126C133.979 21.5101 133.81 21.0195 133.474 20.6543C133.137 20.2891 132.621 20.1064 131.927 20.1064C131.504 20.1064 131.139 20.1781 130.831 20.3213C130.523 20.4645 130.283 20.6579 130.111 20.9014C129.939 21.1449 129.854 21.4206 129.854 21.7285H127.275C127.275 21.1126 127.472 20.5326 127.866 19.9883C128.26 19.444 128.815 19.0036 129.531 18.667C130.247 18.3304 131.092 18.1621 132.066 18.1621C132.94 18.1621 133.714 18.3089 134.387 18.6025C135.067 18.8962 135.601 19.3402 135.987 19.9346C136.381 20.5218 136.578 21.2594 136.578 22.1475V27.3145C136.578 27.8444 136.614 28.3206 136.686 28.7432C136.764 29.1585 136.875 29.5202 137.019 29.8281V30H134.365C134.243 29.7207 134.147 29.3662 134.075 28.9365C134.011 28.4997 133.979 28.0771 133.979 27.6689ZM134.354 22.9316L134.376 24.5322H132.518C131.551 24.5322 130.824 24.7077 130.337 25.0586C129.85 25.4023 129.606 25.8857 129.606 26.5088C129.606 26.9814 129.764 27.3753 130.079 27.6904C130.401 28.0055 130.86 28.1631 131.454 28.1631C131.984 28.1631 132.446 28.0557 132.84 27.8408C133.241 27.6188 133.556 27.3503 133.785 27.0352C134.014 26.7129 134.136 26.4085 134.15 26.1221L134.988 27.2715C134.902 27.5651 134.756 27.8802 134.548 28.2168C134.34 28.5534 134.068 28.8757 133.731 29.1836C133.402 29.4844 133.005 29.7314 132.539 29.9248C132.081 30.1182 131.551 30.2148 130.949 30.2148C130.19 30.2148 129.513 30.0645 128.919 29.7637C128.325 29.4557 127.859 29.0439 127.522 28.5283C127.186 28.0055 127.018 27.4147 127.018 26.7559C127.018 25.5241 127.476 24.5788 128.393 23.9199C129.316 23.2611 130.627 22.9316 132.324 22.9316H134.354ZM142.486 28.7324L145.645 18.377H148.416L143.754 31.7725C143.646 32.0589 143.507 32.3704 143.335 32.707C143.163 33.0436 142.938 33.3623 142.658 33.6631C142.386 33.971 142.046 34.2181 141.638 34.4043C141.229 34.5977 140.735 34.6943 140.155 34.6943C139.926 34.6943 139.704 34.6729 139.489 34.6299C139.282 34.5941 139.085 34.5547 138.898 34.5117L138.888 32.5352C138.959 32.5423 139.045 32.5495 139.146 32.5566C139.253 32.5638 139.339 32.5674 139.403 32.5674C140.048 32.5674 140.535 32.4456 140.864 32.2021C141.194 31.9658 141.455 31.5612 141.648 30.9883L142.486 28.7324ZM140.703 18.377L143.464 27.0781L143.926 29.8066L142.132 30.2686L137.91 18.377H140.703Z" fill="white"/>
<path d="M14.812 13.3387C14.0375 13.8161 13.7946 14.8287 14.2701 15.6022C17.7568 21.2742 18.7667 29.9232 16.7297 36.6336C16.4669 37.5038 16.9573 38.423 17.8261 38.6871C18.6963 38.9492 19.6137 38.4585 19.8784 37.5898C22.2041 29.9247 21.0775 20.3959 17.074 13.8808C16.5977 13.1071 15.5847 12.8624 14.812 13.3387Z" fill="black"/>
<path d="M21.8127 12.8464C21.0382 13.3237 20.7953 14.3364 21.2708 15.1099C24.7575 20.7819 25.7674 29.4309 23.7304 36.1413C23.4676 37.0115 23.958 37.9307 24.8268 38.1948C25.697 38.4569 26.6144 37.9662 26.8791 37.0975C29.2048 29.4324 28.0782 19.9036 24.0747 13.3885C23.5984 12.6148 22.5854 12.37 21.8127 12.8464Z" fill="black"/>
<path d="M28.8134 12.3541C28.039 12.8314 27.796 13.8441 28.2716 14.6176C31.7582 20.2896 32.7681 28.9386 30.7312 35.6489C30.4683 36.5192 30.9587 37.4384 31.8275 37.7025C32.6978 37.9646 33.6152 37.4739 33.8798 36.6052C36.2056 28.9401 35.079 19.4113 31.0754 12.8962C30.5991 12.1225 29.5862 11.8777 28.8134 12.3541Z" fill="black"/>
</svg>
