<svg width="40" height="40" viewBox="0 0 40 40" fill="none" xmlns="http://www.w3.org/2000/svg">
<g clip-path="url(#clip0_222_322)">
<path d="M39.3471 34.6392C38.3849 36.9759 36.323 38.7629 33.9863 39.4502C32.4742 39.8625 30.8247 40 29.1753 40H11.0309C9.38144 40 7.73196 39.8625 6.21993 39.4502C3.74571 38.7629 1.82131 36.9759 0.859107 34.6392C0.309278 32.8522 0.0343643 30.9278 0.0343643 29.0034V10.9966C-0.103093 9.07216 0.171821 7.14777 0.859107 5.36082C1.82131 3.02405 3.88316 1.23711 6.21993 0.549828C7.86942 0.137457 9.38144 0 11.0309 0H29.0378C30.6873 0 32.3368 0.137457 33.8488 0.549828C36.323 1.23711 38.2474 3.02405 39.2096 5.36082C39.8969 7.14777 40.1718 9.07216 40.0344 10.9966V29.0034C40.1718 30.9278 39.8969 32.8522 39.3471 34.6392Z" fill="url(#paint0_linear_222_322)"/>
<path d="M33.25 20C33.25 27.3178 27.3178 33.25 20 33.25C12.6822 33.25 6.75 27.3178 6.75 20C6.75 12.6822 12.6822 6.75 20 6.75C27.3178 6.75 33.25 12.6822 33.25 20Z" stroke="white" stroke-width="1.5"/>
<path d="M28.25 20C28.25 24.5563 24.5563 28.25 20 28.25C15.4437 28.25 11.75 24.5563 11.75 20C11.75 15.4437 15.4437 11.75 20 11.75C24.5563 11.75 28.25 15.4437 28.25 20Z" stroke="white" stroke-width="1.5"/>
</g>
<defs>
<linearGradient id="paint0_linear_222_322" x1="20.0713" y1="0.613333" x2="20.0713" y2="40.0718" gradientUnits="userSpaceOnUse">
<stop stop-color="#A249E8"/>
<stop offset="1" stop-color="#9C487A"/>
</linearGradient>
<clipPath id="clip0_222_322">
<rect width="40" height="40" fill="white"/>
</clipPath>
</defs>
</svg>
